<?xml version="1.0" standalone="no"?>
<!DOCTYPE svg PUBLIC "-//W3C//DTD SVG 20010904//EN"
 "http://www.w3.org/TR/2001/REC-SVG-20010904/DTD/svg10.dtd">
<svg version="1.0" xmlns="http://www.w3.org/2000/svg"
 width="700.000000pt" height="700.000000pt" viewBox="0 0 700.000000 700.000000"
 preserveAspectRatio="xMidYMid meet">
<metadata>
Created by potrace 1.11, written by Peter Selinger 2001-2013
</metadata>
<g transform="translate(0.000000,700.000000) scale(0.100000,-0.100000)"
fill="#000000" stroke="none">
<path d="M3210 6985 c-860 -109 -1593 -603 -2009 -1353 -178 -322 -281 -671
-317 -1078 -17 -180 -17 -202 -1 -378 26 -280 65 -466 150 -706 51 -145 192
-424 279 -555 357 -533 880 -915 1487 -1084 176 -49 303 -72 544 -97 l57 -5 0
-300 0 -299 -137 0 c-154 0 -193 -11 -249 -68 -58 -57 -68 -93 -72 -249 l-4
-143 -980 0 c-854 0 -983 -2 -1008 -15 -76 -39 -66 -154 17 -186 14 -5 415 -9
998 -9 l973 0 4 -137 c6 -190 33 -247 143 -299 48 -23 59 -24 260 -23 140 1
196 4 168 9 -77 16 -130 56 -169 130 -17 32 -19 66 -22 393 -4 421 -1 444 64
516 50 56 108 81 186 81 l48 0 0 299 0 300 58 6 c235 24 402 52 402 67 0 5 -9
8 -20 8 -15 0 5 25 78 98 137 135 223 252 323 437 61 113 150 309 169 373 7
23 16 42 19 42 4 0 52 -26 108 -59 126 -72 262 -168 373 -260 47 -39 89 -71
94 -71 5 0 42 33 84 73 l75 74 -47 43 c-130 120 -373 290 -529 371 -45 23 -83
43 -84 44 -2 1 15 73 37 161 74 292 126 651 137 951 l6 163 619 0 618 0 0 115
0 115 -618 0 -619 0 -6 168 c-12 305 -62 651 -137 951 -22 85 -38 156 -37 156
1 1 40 22 87 48 182 98 383 238 509 354 l65 59 -75 72 c-41 39 -81 72 -90 72
-8 0 -28 -14 -45 -31 -70 -74 -281 -221 -477 -333 l-47 -27 -9 23 c-177 433
-320 666 -528 858 -61 55 -72 70 -55 70 12 0 22 4 22 8 0 9 -99 31 -230 53
-109 18 -509 20 -640 4z m681 -241 c154 -118 311 -330 432 -584 72 -150 124
-277 116 -284 -11 -9 -158 -58 -254 -84 -476 -133 -991 -121 -1464 34 -78 25
-141 49 -141 53 0 5 9 33 20 65 41 120 327 404 589 585 158 110 331 201 541
288 30 13 77 -8 161 -73z m-1321 -1104 c76 -30 273 -85 387 -109 334 -69 766
-69 1098 -1 120 25 294 73 383 106 36 14 69 21 73 17 12 -12 74 -278 98 -418
39 -230 71 -544 71 -692 l0 -63 -1172 0 -1171 0 6 153 c9 187 38 447 72 631
33 179 86 396 96 396 5 0 31 -9 59 -20z m-425 -677 c-8 -71 -17 -189 -20 -263
-3 -74 -8 -154 -11 -177 -5 -40 -8 -43 -34 -43 -29 0 -29 0 -24 53 14 150 39
314 61 412 14 61 28 120 31 133 2 13 6 21 9 19 2 -2 -3 -62 -12 -134z m-31
-755 c3 -24 8 -106 11 -183 4 -77 13 -192 21 -255 16 -132 16 -144 3 -111 -27
69 -77 355 -93 534 l-5 57 29 0 c26 0 29 -4 34 -42z m2566 -21 c0 -149 -33
-468 -71 -692 -23 -134 -87 -406 -98 -417 -4 -4 -50 8 -104 27 -562 201 -1253
198 -1822 -9 -38 -14 -73 -22 -78 -17 -11 11 -62 224 -92 386 -34 185 -63 445
-72 633 l-6 152 1171 0 1172 0 0 -63z m-775 -1186 c160 -28 298 -62 425 -106
58 -20 107 -38 109 -40 6 -7 -51 -148 -114 -280 -137 -289 -302 -501 -486
-624 -78 -52 -88 -52 -242 20 -277 127 -488 270 -717 483 -152 142 -253 262
-279 331 -12 30 -21 60 -21 65 0 10 208 80 326 109 81 21 291 57 374 65 25 2
149 2 275 1 176 -3 258 -8 350 -24z"/>
<path d="M4070 565 l0 -105 996 2 996 3 29 33 c48 54 35 129 -28 161 -15 8
-301 11 -1007 11 l-986 0 0 -105z"/>
</g>
</svg>
