<svg xmlns="http://www.w3.org/2000/svg" width="32" height="32"><g fill="none" fill-rule="evenodd"><path d="M0 0h32v32H0z"/><path fill="#999" d="M13.64 24.623a8.883 8.883 0 01-2.068-.858L9.68 25.237 6.763 22.32l1.472-1.892a8.883 8.883 0 01-.858-2.068L5 18.063v-4.125l2.377-.298c.2-.73.49-1.424.858-2.068L6.763 9.68 9.68 6.763l1.892 1.472a8.883 8.883 0 012.068-.858L13.937 5h4.126l.297 2.377c.73.2 1.424.49 2.068.858l1.892-1.472 2.917 2.917-1.472 1.892c.368.644.658 1.337.858 2.068l2.377.297v4.126l-2.377.297c-.2.73-.49 1.424-.858 2.068l1.472 1.892-2.917 2.917-1.892-1.472a8.883 8.883 0 01-2.068.858L18.063 27h-4.125l-.298-2.377zM16 20.125a4.125 4.125 0 100-8.25 4.125 4.125 0 000 8.25z"/></g></svg>