<svg width="80" height="80" xmlns="http://www.w3.org/2000/svg"><g fill="none" fill-rule="evenodd"><path d="M0 0h80v80H0z"/><path d="M8 27l31.997 13M27 8l12.997 32M40 40l12.997 32M40 40l31.997 13M40 40l31.997-13M40 40L52.997 8M27 72l12.997-32M8 53l31.997-13" stroke="#000" stroke-opacity=".2"/><circle stroke="#3AA65E" fill="#FFF" cx="27" cy="8" r="7.5"/><circle stroke="#3AA65E" fill="#FFF" cx="27" cy="72" r="7.5"/><circle stroke="#3AA65E" fill="#FFF" cx="72" cy="53" r="7.5"/><circle stroke="#3AA65E" fill="#FFF" cx="72" cy="27" r="7.5"/><circle stroke="#3AA65E" fill="#FFF" cx="53" cy="8" r="7.5"/><circle stroke="#3AA65E" fill="#FFF" cx="53" cy="72" r="7.5"/><circle stroke="#3AA65E" fill="#FFF" cx="8" cy="53" r="7.5"/><circle stroke="#3AA65E" fill="#FFF" cx="40" cy="40" r="11.5"/><circle stroke="#3AA65E" fill="#FFF" cx="8" cy="27" r="7.5"/></g></svg>