<svg width="24" height="24" xmlns="http://www.w3.org/2000/svg"><g fill-rule="evenodd"><circle fill-opacity=".1" cx="12" cy="12" r="12"/><path d="M10.982 13.765c0-.53.104-.967.311-1.314.207-.346.509-.728.906-1.145a5.82 5.82 0 00.64-.772 1.26 1.26 0 00.206-.71c0-.377-.13-.675-.39-.894-.26-.22-.606-.329-1.038-.329-.414 0-.782.1-1.104.298a2.502 2.502 0 00-.813.833L8.1 8.647a3.92 3.92 0 011.5-1.512c.63-.357 1.378-.535 2.242-.535 1.013 0 1.826.25 2.44.749.612.499.918 1.191.918 2.077 0 .418-.06.785-.178 1.1a3.008 3.008 0 01-.437.802c-.172.22-.394.472-.667.757-.327.336-.565.618-.714.848-.15.229-.225.506-.225.832h-1.997zm1.02 3.585c-.377 0-.692-.13-.945-.39a1.312 1.312 0 01-.379-.95 1.275 1.275 0 011.323-1.31 1.275 1.275 0 011.323 1.31c0 .373-.126.69-.379.95-.252.26-.567.39-.944.39z" fill-opacity=".9"/></g></svg>