<?xml version="1.0" encoding="UTF-8"?>
<svg width="24px" height="24px" viewBox="0 0 24 24" version="1.1" xmlns="http://www.w3.org/2000/svg" xmlns:xlink="http://www.w3.org/1999/xlink">
    <!-- Generator: sketchtool 52.6 (67491) - http://www.bohemiancoding.com/sketch -->
    <title>36350042-7C93-47A7-89E6-1C4CF4E14299</title>
    <desc>Created with sketchtool.</desc>
    <g id="Symbols" stroke="none" stroke-width="1" fill="none" fill-rule="evenodd">
        <g id="icon/pass/M/visible/hover">
            <g id="icon/pass/visible/hover-copy">
                <g id="icon-pass-visible-hover">
                    <rect id="Rectangle-2" x="0" y="0" width="24" height="24"></rect>
                    <g id="Group-8" transform="translate(1.000000, 3.000000)" stroke="#3AA65E">
                        <g id="Group-4" transform="translate(0.000000, 3.500000)">
                            <path d="M0.331816054,6.5 C2.32625987,2.63925939 6.3549139,0 11,0 C15.6450861,0 19.6737401,2.63925939 21.6681839,6.5 C19.6737401,10.3607406 15.6450861,13 11,13 C6.3549139,13 2.32625987,10.3607406 0.331816054,6.5 Z" id="Combined-Shape"></path>
                        </g>
                        <circle id="Oval-10" cx="11" cy="10" r="2.5"></circle>
                        <g id="Group-5" transform="translate(11.000000, 1.500000) scale(1, -1) translate(-11.000000, -1.500000) translate(2.000000, 0.000000)" stroke-linecap="square">
                            <path d="M11.5,1 L12,3" id="Line"></path>
                            <path d="M16,0 L17.5,2" id="Line"></path>
                            <path d="M0.5,0 L2,2" id="Line" transform="translate(1.250000, 1.000000) scale(-1, 1) translate(-1.250000, -1.000000) "></path>
                            <path d="M6.5,1 L6,3" id="Line"></path>
                        </g>
                    </g>
                </g>
            </g>
        </g>
    </g>
</svg>