<?xml version="1.0" encoding="UTF-8"?>
<svg width="80px" height="80px" viewBox="0 0 80 80" version="1.1" xmlns="http://www.w3.org/2000/svg" xmlns:xlink="http://www.w3.org/1999/xlink">
    <!-- Generator: sketchtool 54.1 (76490) - https://sketchapp.com -->
    <title>09BC0AE9-83AB-4E55-9A90-1D766DBDEB8D</title>
    <desc>Created with sketchtool.</desc>
    <g id="Page-1" stroke="none" stroke-width="1" fill="none" fill-rule="evenodd">
        <g id="cards/big/MAIN-NORMAL" transform="translate(-432.000000, -224.000000)">
            <g id="scheme" transform="translate(400.000000, 192.000000)">
                <g id="graphic/scheme/var2" transform="translate(32.000000, 32.000000)">
                    <g id="Group">
                        <g id="Oval-2">
                            <rect id="Rectangle" x="0" y="0" width="80" height="80"></rect>
                            <g id="Group-Copy">
                                <g id="Group-2" transform="translate(8.000000, 8.000000)" stroke="#000000" stroke-opacity="0.2">
                                    <path d="M0,19 L31.9969,32" id="Stroke-2"></path>
                                    <path d="M19,1.09139364e-11 L31.9969,32" id="Stroke-2"></path>
                                    <path d="M32,32 L44.9969,64" id="Stroke-2"></path>
                                    <path d="M32,32 L63.9969,45" id="Stroke-2"></path>
                                    <path d="M32,32 L63.9969,19" id="Stroke-2"></path>
                                    <path d="M32,32 L44.9969,3.63797881e-12" id="Stroke-2"></path>
                                    <path d="M19,64 L31.9969,32" id="Stroke-2"></path>
                                    <path d="M0,45 L31.9969,32" id="Stroke-2"></path>
                                </g>
                                <circle id="Oval" stroke="#3AA65E" fill="#FFFFFF" cx="27" cy="8" r="7.5"></circle>
                                <circle id="Oval" stroke="#3AA65E" fill="#FFFFFF" cx="27" cy="72" r="7.5"></circle>
                                <circle id="Oval" stroke="#3AA65E" fill="#FFFFFF" cx="72" cy="53" r="7.5"></circle>
                                <circle id="Oval" stroke="#3AA65E" fill="#FFFFFF" cx="72" cy="27" r="7.5"></circle>
                                <circle id="Oval" stroke="#3AA65E" fill="#FFFFFF" cx="53" cy="8" r="7.5"></circle>
                                <circle id="Oval" stroke="#3AA65E" fill="#FFFFFF" cx="53" cy="72" r="7.5"></circle>
                                <circle id="Oval" stroke="#3AA65E" fill="#FFFFFF" cx="8" cy="53" r="7.5"></circle>
                                <circle id="Oval" stroke="#3AA65E" fill="#FFFFFF" cx="40" cy="40" r="11.5"></circle>
                                <circle id="Oval" stroke="#3AA65E" fill="#FFFFFF" cx="8" cy="27" r="7.5"></circle>
                            </g>
                        </g>
                    </g>
                </g>
            </g>
        </g>
    </g>
</svg>