<svg xmlns="http://www.w3.org/2000/svg" width="20" height="20" viewBox="0 0 20 20">
    <g fill="none" fill-rule="evenodd">
        <circle cx="10" cy="10" r="10" fill="#000" fill-opacity=".4"/>
        <path fill="#FFF" d="M8.982 11.765c0-.53.104-.967.311-1.314.207-.346.509-.728.906-1.145a5.82 5.82 0 0 0 .64-.772c.138-.209.206-.446.206-.71 0-.377-.13-.675-.39-.894-.26-.22-.606-.329-1.038-.329-.414 0-.782.1-1.104.298a2.502 2.502 0 0 0-.813.833L6.1 6.647c.37-.652.87-1.156 1.5-1.512.63-.357 1.378-.535 2.242-.535 1.013 0 1.826.25 2.44.749.612.499.918 1.191.918 2.077 0 .418-.06.785-.178 1.1a3.008 3.008 0 0 1-.437.802c-.172.22-.394.472-.667.757-.327.336-.565.618-.714.848-.15.229-.225.506-.225.832H8.982zm1.02 3.585c-.377 0-.692-.13-.945-.39a1.312 1.312 0 0 1-.379-.95 1.275 1.275 0 0 1 1.323-1.31 1.275 1.275 0 0 1 1.323 1.31c0 .373-.126.69-.379.95-.252.26-.567.39-.944.39z"/>
    </g>
</svg>
