<svg xmlns="http://www.w3.org/2000/svg" width="640" height="288" viewBox="0 0 640 288">
    <g fill="none" fill-rule="evenodd">
        <path d="M0 0h640v288H0z"/>
        <path fill="#F2F2F2" d="M0 0h304v24H0zM0 98h72v12H0zM0 66h72v12H0zM0 130h72v12H0zM0 162h72v12H0zM0 194h72v12H0zM0 226h72v12H0zM0 274h72v12H0zM160 98h144v12H160zM160 130h144v12H160zM160 162h144v12H160zM160 194h144v12H160zM160 226h144v12H160zM160 274h144v12H160zM160 66h72v12h-72zM328 98h144v12H328zM328 130h144v12H328zM328 162h144v12H328zM328 194h144v12H328zM328 226h144v12H328zM328 274h144v12H328zM328 66h72v12h-72zM496 98h144v12H496zM496 130h144v12H496zM496 162h144v12H496zM496 194h144v12H496zM496 226h144v12H496zM496 274h144v12H496zM496 66h72v12h-72z"/>
    </g>
</svg>
