<?xml version="1.0" encoding="UTF-8"?>
<svg width="104px" height="104px" viewBox="0 0 104 104" version="1.1" xmlns="http://www.w3.org/2000/svg" xmlns:xlink="http://www.w3.org/1999/xlink">
    <!-- Generator: sketchtool 52.6 (67491) - http://www.bohemiancoding.com/sketch -->
    <title>55DB30C0-61A6-47A4-89F0-6BA6713B171B</title>
    <desc>Created with sketchtool.</desc>
    <g id="trash" stroke="none" stroke-width="1" fill="none" fill-rule="evenodd">
        <g id="INDEX/DESKTOP/SMALL" transform="translate(-40.000000, -996.000000)">
            <g id="graphic/main/img03" transform="translate(40.000000, 996.000000)">
                <g id="Group-24">
                    <rect id="Rectangle-Copy-9" opacity="0.100000001" x="0" y="0" width="104" height="104"></rect>
                    <g id="Group-10">
                        <circle id="Oval" fill="#F24C3D" cx="12" cy="44" r="12"></circle>
                        <circle id="Oval" fill="#F24C3D" cx="12" cy="20" r="4"></circle>
                        <circle id="Oval" fill="#3AA65E" cx="12" cy="68" r="4"></circle>
                        <circle id="Oval" fill="#F24C3D" cx="12" cy="100" r="4"></circle>
                        <circle id="Oval" fill="#3AA65E" cx="12" cy="84" r="4"></circle>
                        <circle id="Oval" fill="#3AA65E" cx="12" cy="4" r="4"></circle>
                        <g id="Group-11" transform="translate(10.000000, 37.000000)" fill="#FFFFFF">
                            <polygon id="Rectangle" points="0.5 0 3.5 0 3 8.75 1 8.75"></polygon>
                            <circle id="Oval" cx="2" cy="12" r="1.75"></circle>
                        </g>
                    </g>
                    <rect id="Rectangle" fill="#FFFFFF" x="32" y="24" width="72" height="56" rx="2"></rect>
                    <polygon id="Rectangle" fill="#FFFFFF" points="36 38 36 50 28 44"></polygon>
                    <rect id="Rectangle" fill="#000000" x="38" y="30" width="40" height="4" rx="2"></rect>
                    <rect id="Rectangle" fill="#000000" x="38" y="39" width="60" height="1"></rect>
                    <rect id="Rectangle" fill="#000000" x="38" y="43" width="60" height="1"></rect>
                    <rect id="Rectangle" fill="#000000" x="38" y="47" width="40" height="1"></rect>
                    <rect id="Rectangle" fill="#000000" x="38" y="53" width="60" height="1"></rect>
                    <rect id="Rectangle" fill="#000000" x="38" y="57" width="60" height="1"></rect>
                    <rect id="Rectangle" fill="#000000" x="38" y="61" width="40" height="1"></rect>
                    <rect id="Rectangle" fill="#000000" x="38" y="67" width="60" height="1"></rect>
                    <rect id="Rectangle" fill="#000000" x="38" y="71" width="24" height="1"></rect>
                </g>
            </g>
        </g>
    </g>
</svg>