<?xml version="1.0" encoding="UTF-8"?>
<svg width="170px" height="246px" viewBox="0 0 170 246" version="1.1" xmlns="http://www.w3.org/2000/svg" xmlns:xlink="http://www.w3.org/1999/xlink">
    <!-- Generator: Sketch 57.1 (83088) - https://sketch.com -->
    <title>1Badge_1 Copy 3</title>
    <desc>Created with Sketch.</desc>
    <g id="Badge_1-Copy-3" stroke="none" stroke-width="1" fill="none" fill-rule="evenodd">
        <g id="Group-45-Copy">
            <rect id="Rectangle" stroke="#FFFFFF" fill="#191919" x="0" y="0" width="170" height="246" rx="4"></rect>
            <g id="Group-25" transform="translate(40.000000, 170.000000)">
                <text id="15-000-₽" font-family="Roboto-Medium, Roboto" font-size="16" font-weight="400" fill="#FFFFFF">
                    <tspan x="11.7647059" y="19.3676471">15 000 ₽</tspan>
                </text>
                <g id="graphic/main/line/xxs" transform="translate(0.000000, -0.000000)">
                    <g id="Group-2">
                        <g id="Group">
                            <rect id="Rectangle" x="0" y="0" width="91" height="27"></rect>
                            <path d="M7.91304348,22.95 L81.7681159,4.05" id="Line" stroke="#F24C3D" stroke-width="2"></path>
                        </g>
                    </g>
                </g>
            </g>
            <path d="M41.9863281,141.253906 L32.0898438,164 L26.7285156,164 L36.6425781,142.519531 L23.9160156,142.519531 L23.9160156,138.40625 L41.9863281,138.40625 L41.9863281,141.253906 Z M53.3417969,151.414062 L54.8183594,138.40625 L69.1621094,138.40625 L69.1621094,142.642578 L58.984375,142.642578 L58.3515625,148.144531 C59.5585998,147.499997 60.8417901,147.177734 62.2011719,147.177734 C64.6386841,147.177734 66.5488212,147.933586 67.9316406,149.445312 C69.31446,150.957039 70.0058594,153.072252 70.0058594,155.791016 C70.0058594,157.443368 69.65723,158.922845 68.9599609,160.229492 C68.2626918,161.536139 67.2636784,162.549801 65.9628906,163.270508 C64.6621029,163.991215 63.126962,164.351562 61.3574219,164.351562 C59.8105391,164.351562 58.3750066,164.038089 57.0507812,163.411133 C55.7265559,162.784177 54.6806679,161.902349 53.9130859,160.765625 C53.145504,159.628901 52.7382815,158.333992 52.6914062,156.880859 L57.71875,156.880859 C57.8242193,157.947271 58.1962859,158.776364 58.8349609,159.368164 C59.473636,159.959964 60.3085886,160.255859 61.3398438,160.255859 C62.488287,160.255859 63.3730438,159.842778 63.9941406,159.016602 C64.6152375,158.190426 64.9257812,157.021492 64.9257812,155.509766 C64.9257812,154.056633 64.5683629,152.943363 63.8535156,152.169922 C63.1386683,151.396481 62.1250066,151.009766 60.8125,151.009766 C59.6054627,151.009766 58.6269569,151.326169 57.8769531,151.958984 L57.3847656,152.416016 L53.3417969,151.414062 Z M90.4667969,153.417969 C90.4667969,156.957049 89.7343823,159.664053 88.2695312,161.539062 C86.8046802,163.414072 84.6601704,164.351562 81.8359375,164.351562 C79.0468611,164.351562 76.9140699,163.43165 75.4375,161.591797 C73.9609301,159.751944 73.2050783,157.115252 73.1699219,153.681641 L73.1699219,148.970703 C73.1699219,145.396467 73.9111254,142.683603 75.3935547,140.832031 C76.875984,138.980459 79.0117048,138.054688 81.8007812,138.054688 C84.5898577,138.054688 86.7226489,138.971671 88.1992188,140.805664 C89.6757886,142.639658 90.4316404,145.27342 90.4667969,148.707031 L90.4667969,153.417969 Z M85.3867188,148.25 C85.3867188,146.128896 85.0966826,144.584966 84.5166016,143.618164 C83.9365205,142.651362 83.0312562,142.167969 81.8007812,142.167969 C80.6054628,142.167969 79.7236357,142.627925 79.1552734,143.547852 C78.5869112,144.467778 78.2851564,145.90624 78.25,147.863281 L78.25,154.085938 C78.25,156.171885 78.5341768,157.721675 79.1025391,158.735352 C79.6709013,159.749029 80.582025,160.255859 81.8359375,160.255859 C83.0781312,160.255859 83.9746066,159.769536 84.5253906,158.796875 C85.0761746,157.824214 85.3632811,156.335948 85.3867188,154.332031 L85.3867188,148.25 Z M111.121094,153.417969 C111.121094,156.957049 110.388679,159.664053 108.923828,161.539062 C107.458977,163.414072 105.314467,164.351562 102.490234,164.351562 C99.7011579,164.351562 97.5683668,163.43165 96.0917969,161.591797 C94.615227,159.751944 93.8593752,157.115252 93.8242188,153.681641 L93.8242188,148.970703 C93.8242188,145.396467 94.5654223,142.683603 96.0478516,140.832031 C97.5302808,138.980459 99.6660017,138.054688 102.455078,138.054688 C105.244155,138.054688 107.376946,138.971671 108.853516,140.805664 C110.330086,142.639658 111.085937,145.27342 111.121094,148.707031 L111.121094,153.417969 Z M106.041016,148.25 C106.041016,146.128896 105.750979,144.584966 105.170898,143.618164 C104.590817,142.651362 103.685553,142.167969 102.455078,142.167969 C101.25976,142.167969 100.377933,142.627925 99.8095703,143.547852 C99.2412081,144.467778 98.9394533,145.90624 98.9042969,147.863281 L98.9042969,154.085938 C98.9042969,156.171885 99.1884737,157.721675 99.7568359,158.735352 C100.325198,159.749029 101.236322,160.255859 102.490234,160.255859 C103.732428,160.255859 104.628903,159.769536 105.179688,158.796875 C105.730472,157.824214 106.017578,156.335948 106.041016,154.332031 L106.041016,148.25 Z M137.101562,160.589844 L131.511719,160.589844 L131.511719,164 L126.238281,164 L126.238281,160.589844 L122.669922,160.589844 L122.669922,156.318359 L126.238281,156.318359 L126.238281,154.982422 L122.669922,154.982422 L122.669922,150.710938 L126.238281,150.710938 L126.238281,138.40625 L136.1875,138.40625 C138.109385,138.40625 139.796868,138.75195 141.25,139.443359 C142.703132,140.134769 143.831051,141.122064 144.633789,142.405273 C145.436527,143.688483 145.837891,145.150382 145.837891,146.791016 C145.837891,149.322278 144.979501,151.320305 143.262695,152.785156 C141.54589,154.250007 139.158218,154.982422 136.099609,154.982422 L131.511719,154.982422 L131.511719,156.318359 L137.101562,156.318359 L137.101562,160.589844 Z M131.511719,150.710938 L136.064453,150.710938 C139.017593,150.710938 140.494141,149.416029 140.494141,146.826172 C140.494141,145.595697 140.119144,144.602543 139.369141,143.84668 C138.619137,143.090817 137.582038,142.707031 136.257812,142.695312 L131.511719,142.695312 L131.511719,150.710938 Z" id="7500₽" fill="#FFFFFF" fill-rule="nonzero"></path>
            <path d="M34.8171387,213.375977 L31.8337402,213.375977 L31.8337402,219 L30.2976074,219 L30.2976074,212.131836 L34.8171387,212.131836 L34.8171387,213.375977 Z M35.401123,215.502441 C35.401123,214.829586 35.5344225,214.223391 35.8010254,213.683838 C36.0676283,213.144284 36.4421363,212.729575 36.9245605,212.439697 C37.4069848,212.14982 37.9613413,212.004883 38.5876465,212.004883 C39.5144089,212.004883 40.2665987,212.30322 40.8442383,212.899902 C41.4218779,213.496585 41.7339679,214.287918 41.7805176,215.273926 L41.7868652,215.635742 C41.7868652,216.312829 41.6567396,216.917966 41.3964844,217.451172 C41.1362292,217.984378 40.7638371,218.396971 40.2792969,218.688965 C39.7947567,218.980958 39.2351106,219.126953 38.6003418,219.126953 C37.6312614,219.126953 36.8557972,218.804284 36.2739258,218.158936 C35.6920544,217.513587 35.401123,216.653488 35.401123,215.578613 L35.401123,215.502441 Z M36.9436035,215.635742 C36.9436035,216.342451 37.0895981,216.89575 37.3815918,217.295654 C37.6735854,217.695559 38.0798314,217.895508 38.6003418,217.895508 C39.1208522,217.895508 39.5260402,217.692385 39.815918,217.286133 C40.1057957,216.879881 40.2507324,216.285323 40.2507324,215.502441 C40.2507324,214.808428 40.101564,214.258303 39.8032227,213.852051 C39.5048813,213.445799 39.0996933,213.242676 38.5876465,213.242676 C38.0840632,213.242676 37.6841649,213.442625 37.3879395,213.842529 C37.091714,214.242434 36.9436035,214.840165 36.9436035,215.635742 Z M43.119873,217.768555 C43.547284,217.290362 43.8339836,216.836509 43.9799805,216.406982 C44.1259773,215.977456 44.2137857,215.428389 44.2434082,214.759766 L44.3322754,212.131836 L49.0993652,212.131836 L49.0993652,217.768555 L50.0515137,217.768555 L50.0515137,221.043945 L48.5153809,221.043945 L48.5153809,219 L44.1101074,219 L44.1101074,221.043945 L42.548584,221.043945 L42.5549316,217.768555 L43.119873,217.768555 Z M44.9289551,217.768555 L47.5632324,217.768555 L47.5632324,213.458496 L45.8303223,213.458496 L45.7858887,214.772461 C45.7266436,216.033535 45.4410019,217.032223 44.9289551,217.768555 Z M50.8640137,215.502441 C50.8640137,214.829586 50.9973131,214.223391 51.263916,213.683838 C51.5305189,213.144284 51.9050269,212.729575 52.3874512,212.439697 C52.8698755,212.14982 53.4242319,212.004883 54.0505371,212.004883 C54.9772996,212.004883 55.7294893,212.30322 56.3071289,212.899902 C56.8847685,213.496585 57.1968585,214.287918 57.2434082,215.273926 L57.2497559,215.635742 C57.2497559,216.312829 57.1196302,216.917966 56.859375,217.451172 C56.5991198,217.984378 56.2267277,218.396971 55.7421875,218.688965 C55.2576473,218.980958 54.6980012,219.126953 54.0632324,219.126953 C53.0941521,219.126953 52.3186878,218.804284 51.7368164,218.158936 C51.154945,217.513587 50.8640137,216.653488 50.8640137,215.578613 L50.8640137,215.502441 Z M52.4064941,215.635742 C52.4064941,216.342451 52.5524888,216.89575 52.8444824,217.295654 C53.1364761,217.695559 53.542722,217.895508 54.0632324,217.895508 C54.5837428,217.895508 54.9889308,217.692385 55.2788086,217.286133 C55.5686863,216.879881 55.713623,216.285323 55.713623,215.502441 C55.713623,214.808428 55.5644546,214.258303 55.2661133,213.852051 C54.9677719,213.445799 54.5625839,213.242676 54.0505371,213.242676 C53.5469539,213.242676 53.1470555,213.442625 52.8508301,213.842529 C52.5546046,214.242434 52.4064941,214.840165 52.4064941,215.635742 Z M58.6716309,219 L58.6716309,212.131836 L61.458252,212.131836 C62.3977098,212.131836 63.1128719,212.295815 63.6037598,212.623779 C64.0946476,212.951743 64.3400879,213.422523 64.3400879,214.036133 C64.3400879,214.353517 64.2417002,214.638101 64.0449219,214.889893 C63.8481435,215.141684 63.5572122,215.335286 63.1721191,215.470703 C63.6206891,215.563803 63.9761543,215.752114 64.2385254,216.035645 C64.5008965,216.319175 64.6320801,216.653481 64.6320801,217.038574 C64.6320801,217.677575 64.3961612,218.164224 63.9243164,218.498535 C63.4524716,218.832847 62.7743371,219 61.8898926,219 L58.6716309,219 Z M60.2141113,216.07373 L60.2141113,217.78125 L61.9025879,217.78125 C62.693933,217.78125 63.0895996,217.497724 63.0895996,216.930664 C63.0895996,216.359372 62.6875854,216.07373 61.8835449,216.07373 L60.2141113,216.07373 Z M60.2141113,214.969238 L61.4836426,214.969238 C62.3596235,214.969238 62.7976074,214.711103 62.7976074,214.194824 C62.7976074,213.653155 62.382898,213.373861 61.5534668,213.356934 L60.2141113,213.356934 L60.2141113,214.969238 Z M70.0656738,219 C69.9979652,218.868814 69.938721,218.655112 69.8879395,218.358887 C69.3970516,218.870934 68.7961461,219.126953 68.0852051,219.126953 C67.395423,219.126953 66.8326031,218.930178 66.3967285,218.536621 C65.9608539,218.143064 65.7429199,217.656416 65.7429199,217.07666 C65.7429199,216.34456 66.0148085,215.782798 66.5585938,215.391357 C67.102379,214.999917 67.8799591,214.804199 68.8913574,214.804199 L69.8371582,214.804199 L69.8371582,214.353516 C69.8371582,213.998045 69.7377126,213.713461 69.5388184,213.499756 C69.3399241,213.28605 69.0373555,213.179199 68.6311035,213.179199 C68.2798648,213.179199 67.9921072,213.267008 67.7678223,213.442627 C67.5435373,213.618246 67.4313965,213.84147 67.4313965,214.112305 L65.888916,214.112305 C65.888916,213.735675 66.013752,213.383384 66.2634277,213.05542 C66.5131035,212.727456 66.8526997,212.470379 67.2822266,212.28418 C67.7117534,212.097981 68.1909967,212.004883 68.7199707,212.004883 C69.5240112,212.004883 70.1651181,212.206948 70.6433105,212.611084 C71.121503,213.01522 71.3669433,213.58333 71.3796387,214.31543 L71.3796387,217.413086 C71.3796387,218.030928 71.4663891,218.523924 71.6398926,218.89209 L71.6398926,219 L70.0656738,219 Z M68.3708496,217.88916 C68.6755386,217.88916 68.9622382,217.815105 69.230957,217.666992 C69.4996758,217.518879 69.7017409,217.319988 69.8371582,217.070312 L69.8371582,215.775391 L69.0056152,215.775391 C68.4343233,215.775391 68.0048029,215.874836 67.717041,216.07373 C67.4292792,216.272625 67.2854004,216.554035 67.2854004,216.917969 C67.2854004,217.214194 67.3837881,217.450113 67.5805664,217.625732 C67.7773447,217.801352 68.0407698,217.88916 68.3708496,217.88916 Z M78.4953613,212.131836 L78.4953613,219 L76.9592285,219 L76.9592285,216.47998 L75.5183105,216.47998 L74.052002,219 L72.4523926,219 L74.0710449,216.226074 C73.6478657,216.048339 73.3230806,215.794435 73.0966797,215.464355 C72.8702788,215.134276 72.7570801,214.755536 72.7570801,214.328125 C72.7570801,213.689124 73.0035783,213.165448 73.496582,212.75708 C73.9895858,212.348712 74.6550251,212.1403 75.4929199,212.131836 L78.4953613,212.131836 Z M74.2995605,214.366211 C74.2995605,214.653973 74.4064117,214.887776 74.6201172,215.067627 C74.8338227,215.247478 75.1078271,215.337402 75.4421387,215.337402 L76.9592285,215.337402 L76.9592285,213.356934 L75.5373535,213.356934 C75.160724,213.356934 74.8602713,213.452147 74.6359863,213.642578 C74.4117014,213.833009 74.2995605,214.074217 74.2995605,214.366211 Z M89.267334,219 L87.7248535,219 L87.7248535,213.375977 L85.0461426,213.375977 L85.0461426,219 L83.5036621,219 L83.5036621,212.131836 L89.267334,212.131836 L89.267334,219 Z M90.6193848,215.502441 C90.6193848,214.829586 90.7526842,214.223391 91.0192871,213.683838 C91.28589,213.144284 91.660398,212.729575 92.1428223,212.439697 C92.6252466,212.14982 93.179603,212.004883 93.8059082,212.004883 C94.7326706,212.004883 95.4848604,212.30322 96.0625,212.899902 C96.6401396,213.496585 96.9522296,214.287918 96.9987793,215.273926 L97.005127,215.635742 C97.005127,216.312829 96.8750013,216.917966 96.6147461,217.451172 C96.3544909,217.984378 95.9820988,218.396971 95.4975586,218.688965 C95.0130184,218.980958 94.4533723,219.126953 93.8186035,219.126953 C92.8495231,219.126953 92.0740589,218.804284 91.4921875,218.158936 C90.9103161,217.513587 90.6193848,216.653488 90.6193848,215.578613 L90.6193848,215.502441 Z M92.1618652,215.635742 C92.1618652,216.342451 92.3078599,216.89575 92.5998535,217.295654 C92.8918472,217.695559 93.2980931,217.895508 93.8186035,217.895508 C94.3391139,217.895508 94.7443019,217.692385 95.0341797,217.286133 C95.3240574,216.879881 95.4689941,216.285323 95.4689941,215.502441 C95.4689941,214.808428 95.3198257,214.258303 95.0214844,213.852051 C94.723143,213.445799 94.317955,213.242676 93.8059082,213.242676 C93.302325,213.242676 92.9024266,213.442625 92.6062012,213.842529 C92.3099757,214.242434 92.1618652,214.840165 92.1618652,215.635742 Z M98.3381348,217.768555 C98.7655458,217.290362 99.0522454,216.836509 99.1982422,216.406982 C99.344239,215.977456 99.4320474,215.428389 99.4616699,214.759766 L99.5505371,212.131836 L104.317627,212.131836 L104.317627,217.768555 L105.269775,217.768555 L105.269775,221.043945 L103.733643,221.043945 L103.733643,219 L99.3283691,219 L99.3283691,221.043945 L97.7668457,221.043945 L97.7731934,217.768555 L98.3381348,217.768555 Z M100.147217,217.768555 L102.781494,217.768555 L102.781494,213.458496 L101.048584,213.458496 L101.00415,214.772461 C100.944905,216.033535 100.659264,217.032223 100.147217,217.768555 Z M112.195068,219 L110.652588,219 L110.652588,213.375977 L107.973877,213.375977 L107.973877,219 L106.431396,219 L106.431396,212.131836 L112.195068,212.131836 L112.195068,219 Z M118.123779,212.131836 L119.659912,212.131836 L119.659912,219 L118.123779,219 L118.123779,214.416992 L115.432373,219 L113.89624,219 L113.89624,212.131836 L115.432373,212.131836 L115.432373,216.714844 L118.123779,212.131836 Z M124.122314,217.895508 C124.507408,217.895508 124.826903,217.783367 125.080811,217.559082 C125.334718,217.334797 125.470133,217.057619 125.487061,216.727539 L126.940674,216.727539 C126.923747,217.15495 126.790447,217.55379 126.540771,217.924072 C126.291096,218.294354 125.952557,218.587401 125.525146,218.803223 C125.097735,219.019044 124.636477,219.126953 124.141357,219.126953 C123.180741,219.126953 122.41903,218.815921 121.856201,218.193848 C121.293373,217.571774 121.011963,216.712733 121.011963,215.616699 L121.011963,215.458008 C121.011963,214.412755 121.291257,213.575931 121.849854,212.94751 C122.40845,212.319089 123.170161,212.004883 124.13501,212.004883 C124.951746,212.004883 125.617185,212.242918 126.131348,212.718994 C126.64551,213.195071 126.915283,213.820309 126.940674,214.594727 L125.487061,214.594727 C125.470133,214.20117 125.335776,213.877443 125.083984,213.623535 C124.832193,213.369628 124.511639,213.242676 124.122314,213.242676 C123.622963,213.242676 123.237876,213.423582 122.967041,213.7854 C122.696206,214.147219 122.558675,214.696285 122.554443,215.432617 L122.554443,215.680176 C122.554443,216.424971 122.688801,216.980386 122.95752,217.346436 C123.226238,217.712486 123.614499,217.895508 124.122314,217.895508 Z M130.546143,216.283203 L129.765381,216.283203 L129.765381,219 L128.2229,219 L128.2229,212.131836 L129.765381,212.131836 L129.765381,214.874023 L130.44458,214.874023 L132.342529,212.131836 L134.246826,212.131836 L131.764893,215.419922 L134.456299,219 L132.450439,219 L130.546143,216.283203 Z M139.407471,219 C139.339762,218.868814 139.280518,218.655112 139.229736,218.358887 C138.738848,218.870934 138.137943,219.126953 137.427002,219.126953 C136.73722,219.126953 136.1744,218.930178 135.738525,218.536621 C135.302651,218.143064 135.084717,217.656416 135.084717,217.07666 C135.084717,216.34456 135.356605,215.782798 135.900391,215.391357 C136.444176,214.999917 137.221756,214.804199 138.233154,214.804199 L139.178955,214.804199 L139.178955,214.353516 C139.178955,213.998045 139.079509,213.713461 138.880615,213.499756 C138.681721,213.28605 138.379152,213.179199 137.9729,213.179199 C137.621662,213.179199 137.333904,213.267008 137.109619,213.442627 C136.885334,213.618246 136.773193,213.84147 136.773193,214.112305 L135.230713,214.112305 C135.230713,213.735675 135.355549,213.383384 135.605225,213.05542 C135.8549,212.727456 136.194497,212.470379 136.624023,212.28418 C137.05355,212.097981 137.532794,212.004883 138.061768,212.004883 C138.865808,212.004883 139.506915,212.206948 139.985107,212.611084 C140.4633,213.01522 140.70874,213.58333 140.721436,214.31543 L140.721436,217.413086 C140.721436,218.030928 140.808186,218.523924 140.981689,218.89209 L140.981689,219 L139.407471,219 Z M137.712646,217.88916 C138.017336,217.88916 138.304035,217.815105 138.572754,217.666992 C138.841473,217.518879 139.043538,217.319988 139.178955,217.070312 L139.178955,215.775391 L138.347412,215.775391 C137.77612,215.775391 137.3466,215.874836 137.058838,216.07373 C136.771076,216.272625 136.627197,216.554035 136.627197,216.917969 C136.627197,217.214194 136.725585,217.450113 136.922363,217.625732 C137.119142,217.801352 137.382567,217.88916 137.712646,217.88916 Z" id="годоваяподписка" fill="#FFFFFF" fill-rule="nonzero"></path>
            <g id="Group" transform="translate(24.000000, 24.000000)" fill="#FFFFFF" fill-rule="nonzero">
                <path d="M21.0478516,32.1230469 C21.4033221,30.1087139 20.4130976,28.5683647 18.0771484,27.5019531 L13.1767578,25.546875 C7.48922937,23.0077998 4.78938658,19.5123921 5.07714844,15.0605469 C5.19563861,12.9954324 5.87271518,11.1673257 7.10839844,9.57617188 C8.3440817,7.98501809 10.0790904,6.73665817 12.3134766,5.83105469 C14.5478627,4.9254512 16.959948,4.48958316 19.5498047,4.5234375 C23.1214371,4.59114617 26.007476,5.65331003 28.2080078,7.70996094 C30.4085396,9.76661185 31.4918621,12.5214671 31.4580078,15.9746094 L24.0439453,15.9746094 C24.1285812,14.2988197 23.7604208,12.9954474 22.9394531,12.0644531 C22.1184855,11.1334589 20.8447352,10.6510418 19.1181641,10.6171875 C17.4254473,10.5833332 15.9528057,10.9684205 14.7001953,11.7724609 C13.4475849,12.5765014 12.7028007,13.6809826 12.4658203,15.0859375 C12.1442041,16.9309988 13.3798688,18.3951769 16.1728516,19.4785156 L19.5244141,20.7480469 L21.4541016,21.6367188 C26.4476161,24.1080853 28.7835303,27.5781027 28.4619141,32.046875 C28.3095696,34.2304797 27.6113343,36.1135989 26.3671875,37.6962891 C25.1230407,39.2789793 23.4303492,40.4934854 21.2890625,41.3398438 C19.1477758,42.1862021 16.790703,42.5839846 14.2177734,42.5332031 C11.5940624,42.4824216 9.25814826,41.9322969 7.20996094,40.8828125 C5.16177361,39.8333281 3.60449752,38.3522231 2.53808594,36.4394531 C1.53938303,34.6621005 1.07389289,32.6308708 1.14160156,30.3457031 L8.58105469,30.3710938 C8.34407434,34.3828326 10.3160598,36.4225257 14.4970703,36.4902344 C16.3082773,36.4902344 17.7978457,36.0924519 18.9658203,35.296875 C20.1337949,34.5012981 20.8277984,33.443366 21.0478516,32.1230469 Z M53.7001953,34.3828125 L40.8017578,34.3828125 L36.9931641,42 L28.7919922,42 L48.5458984,5.03125 L55.4267578,5.03125 L62.4599609,42 L54.8681641,42 L53.7001953,34.3828125 Z M43.8486328,28.2128906 L52.7607422,28.2128906 L50.6787109,14.4511719 L43.8486328,28.2128906 Z M74.6728516,35.8808594 L90.3642578,35.8808594 L89.2978516,42 L66.1669922,42 L72.5908203,5.03125 L80.0302734,5.03125 L74.6728516,35.8808594 Z M118.141602,25.9785156 L103.973633,25.9785156 L102.24707,35.8808594 L118.90332,35.8808594 L117.836914,42 L93.7412109,42 L100.165039,5.03125 L124.209961,5.03125 L123.118164,11.2011719 L106.538086,11.2011719 L104.989258,20.0117188 L119.208008,20.0117188 L118.141602,25.9785156 Z" id="SALE"></path>
                <path d="M5.32446289,64 L5.32446289,51.9140625 L9.46655273,51.9140625 C10.8334215,51.9140625 11.8737757,52.1879855 12.5876465,52.7358398 C13.3015172,53.2836941 13.6584473,54.0999295 13.6584473,55.1845703 C13.6584473,55.7379585 13.5090347,56.2360004 13.2102051,56.6787109 C12.9113755,57.1214215 12.4742054,57.464517 11.8986816,57.7080078 C12.5516797,57.885092 13.0566388,58.2185034 13.4135742,58.708252 C13.7705096,59.1980005 13.9489746,59.7859666 13.9489746,60.472168 C13.9489746,61.6066137 13.5851273,62.4781871 12.8574219,63.0869141 C12.1297164,63.6956411 11.0879788,64 9.73217773,64 L5.32446289,64 Z M7.42456055,58.5463867 L7.42456055,62.3232422 L9.75708008,62.3232422 C10.415612,62.3232422 10.9302553,62.1599951 11.3010254,61.8334961 C11.6717955,61.5069971 11.8571777,61.0532256 11.8571777,60.472168 C11.8571777,59.2159768 11.2152571,58.5740561 9.93139648,58.5463867 L7.42456055,58.5463867 Z M7.42456055,57.0024414 L9.4831543,57.0024414 C10.1361524,57.0024414 10.6466453,56.8544123 11.0146484,56.5583496 C11.3826516,56.2622869 11.5666504,55.8431017 11.5666504,55.3007812 C11.5666504,54.703122 11.3964861,54.2714857 11.0561523,54.0058594 C10.7158186,53.740233 10.1859574,53.6074219 9.46655273,53.6074219 L7.42456055,53.6074219 L7.42456055,57.0024414 Z M18.1491699,62.3232422 L23.6359863,62.3232422 L23.6359863,64 L16.0490723,64 L16.0490723,51.9140625 L18.1491699,51.9140625 L18.1491699,62.3232422 Z M32.0114746,61.1860352 L27.329834,61.1860352 L26.3503418,64 L24.1672363,64 L28.732666,51.9140625 L30.6169434,51.9140625 L35.1906738,64 L32.9992676,64 L32.0114746,61.1860352 Z M27.9191895,59.4926758 L31.4221191,59.4926758 L29.6706543,54.4790039 L27.9191895,59.4926758 Z M45.7824707,60.0654297 C45.6607253,61.3548242 45.1848186,62.3605921 44.3547363,63.0827637 C43.5246541,63.8049353 42.4206612,64.1660156 41.0427246,64.1660156 C40.0798292,64.1660156 39.2317745,63.9377464 38.4985352,63.4812012 C37.7652958,63.0246559 37.1994649,62.375818 36.8010254,61.534668 C36.4025859,60.6935179 36.1950684,59.7168024 36.1784668,58.6044922 L36.1784668,57.4755859 C36.1784668,56.3356063 36.3804505,55.3312218 36.7844238,54.4624023 C37.1883972,53.5935829 37.7680626,52.9239932 38.5234375,52.4536133 C39.2788124,51.9832333 40.1517691,51.7480469 41.142334,51.7480469 C42.4759995,51.7480469 43.5495565,52.1105107 44.3630371,52.8354492 C45.1765177,53.5603877 45.6496575,54.5841405 45.7824707,55.9067383 L43.6906738,55.9067383 C43.591064,55.0379188 43.3378927,54.4112161 42.9311523,54.0266113 C42.524412,53.6420065 41.9281452,53.449707 41.142334,53.449707 C40.2292435,53.449707 39.5278345,53.7831184 39.0380859,54.4499512 C38.5483374,55.1167839 38.297933,56.0948829 38.2868652,57.3842773 L38.2868652,58.4550781 C38.2868652,59.7610742 38.5206682,60.757158 38.9882812,61.4433594 C39.4558943,62.1295607 40.1407019,62.4726562 41.0427246,62.4726562 C41.867273,62.4726562 42.4870585,62.287274 42.9020996,61.9165039 C43.3171407,61.5457338 43.5799962,60.9287153 43.6906738,60.0654297 L45.7824707,60.0654297 Z M51.1281738,58.7788086 L49.7585449,60.2314453 L49.7585449,64 L47.6584473,64 L47.6584473,51.9140625 L49.7585449,51.9140625 L49.7585449,57.5834961 L50.9206543,56.1474609 L54.4567871,51.9140625 L56.9968262,51.9140625 L52.5061035,57.2680664 L57.2541504,64 L54.763916,64 L51.1281738,58.7788086 Z M69.5725098,58.878418 L64.708252,58.878418 L64.708252,64 L62.6081543,64 L62.6081543,51.9140625 L70.286377,51.9140625 L70.286377,53.6074219 L64.708252,53.6074219 L64.708252,57.2016602 L69.5725098,57.2016602 L69.5725098,58.878418 Z M76.3874512,59.3432617 L74.0466309,59.3432617 L74.0466309,64 L71.9465332,64 L71.9465332,51.9140625 L76.1965332,51.9140625 C77.5910714,51.9140625 78.6673953,52.2267221 79.4255371,52.8520508 C80.1836789,53.4773794 80.5627441,54.3821555 80.5627441,55.5664062 C80.5627441,56.374353 80.3676777,57.0508599 79.9775391,57.5959473 C79.5874004,58.1410346 79.0437047,58.5602199 78.3464355,58.8535156 L81.060791,63.8920898 L81.060791,64 L78.8112793,64 L76.3874512,59.3432617 Z M74.0466309,57.6582031 L76.204834,57.6582031 C76.9131709,57.6582031 77.4665507,57.4797381 77.8649902,57.1228027 C78.2634297,56.7658674 78.4626465,56.2775096 78.4626465,55.6577148 C78.4626465,55.0102507 78.2786477,54.5094419 77.9106445,54.1552734 C77.5426414,53.801105 76.9934119,53.6184896 76.2629395,53.6074219 L74.0466309,53.6074219 L74.0466309,57.6582031 Z M84.7712402,64 L82.6794434,64 L82.6794434,51.9140625 L84.7712402,51.9140625 L84.7712402,64 Z M87.3527832,64 L87.3527832,51.9140625 L90.9221191,51.9140625 C91.9901583,51.9140625 92.9378214,52.1520158 93.7651367,52.6279297 C94.5924521,53.1038435 95.2329893,53.778967 95.6867676,54.6533203 C96.1405459,55.5276736 96.3674316,56.5292912 96.3674316,57.6582031 L96.3674316,58.2641602 C96.3674316,59.4096737 96.1391624,60.4168251 95.6826172,61.2856445 C95.2260719,62.154464 94.5758506,62.8240536 93.7319336,63.2944336 C92.8880166,63.7648135 91.9209853,64 90.8308105,64 L87.3527832,64 Z M89.4528809,53.6074219 L89.4528809,62.3232422 L90.8225098,62.3232422 C91.9237523,62.3232422 92.76904,61.9787632 93.3583984,61.2897949 C93.9477569,60.6008266 94.2479654,59.6116601 94.2590332,58.3222656 L94.2590332,57.6499023 C94.2590332,56.3383723 93.9740426,55.3367548 93.4040527,54.6450195 C92.8340629,53.9532843 92.00676,53.6074219 90.9221191,53.6074219 L89.4528809,53.6074219 Z M105.224365,61.1860352 L100.542725,61.1860352 L99.5632324,64 L97.380127,64 L101.945557,51.9140625 L103.829834,51.9140625 L108.403564,64 L106.212158,64 L105.224365,61.1860352 Z M101.13208,59.4926758 L104.63501,59.4926758 L102.883545,54.4790039 L101.13208,59.4926758 Z M113.716064,57.6416016 L116.496826,51.9140625 L118.821045,51.9140625 L114.770264,59.5507812 L114.770264,64 L112.661865,64 L112.661865,59.5507812 L108.602783,51.9140625 L110.935303,51.9140625 L113.716064,57.6416016 Z" id="BLACKFRIDAY"></path>
            </g>
            <path d="M162,107 L8.00000044,107" id="Line" stroke="#FFFFFF" stroke-linecap="square" stroke-dasharray="9"></path>
        </g>
    </g>
</svg>