<svg xmlns="http://www.w3.org/2000/svg" xmlns:xlink="http://www.w3.org/1999/xlink" width="640" height="816" viewBox="0 0 640 816">
    <defs>
        <rect id="a" width="312" height="144" x="328" y="108" rx="10"/>
    </defs>
    <g fill="none" fill-rule="evenodd">
        <path d="M0 0h640v816H0z"/>
        <g fill="#F2F2F2">
            <path d="M0 0h312v24H0zM0 284h144v12H0zM0 504h144v12H0zM0 676h144v12H0zM328 284h144v12H328zM0 316h272v12H0zM0 536h209v12H0zM0 708h208v12H0zM328 316h208v12H328zM0 632h144v12H0zM0 40h208v12H0zM0 64h272v12H0zM0 340h272v12H0zM0 560h209v12H0zM0 732h272v12H0zM328 340h272v12H328zM0 364h272v12H0zM0 584h209v12H0zM0 756h272v12H0zM0 780h272v12H0zM328 364h272v12H328zM0 388h272v12H0zM0 608h209v12H0zM0 804h144v12H0zM328 388h272v12H328zM0 412h272v12H0zM328 412h144v12H328zM328 456h144v12H328zM328 628h144v12H328zM328 756h144v12H328zM328 488h208v12H328zM328 660h208v12H328zM328 512h272v12H328zM328 684h272v12H328zM328 708h272v12H328zM328 732h272v12H328zM328 536h272v12H328zM328 560h272v12H328zM328 584h144v12H328zM0 436h272v12H0zM0 460h208v12H0z"/>
            <rect width="312" height="144" y="108" rx="10"/>
            <use xlink:href="#a"/>
        </g>
    </g>
</svg>
