<svg width="104" height="104" xmlns="http://www.w3.org/2000/svg"><g fill="none" fill-rule="evenodd"><path opacity=".1" d="M0 0h104v104H0z"/><circle fill="#F24C3D" cx="12" cy="44" r="12"/><circle fill="#F24C3D" cx="12" cy="20" r="4"/><circle fill="#3AA65E" cx="12" cy="68" r="4"/><circle fill="#F24C3D" cx="12" cy="100" r="4"/><circle fill="#3AA65E" cx="12" cy="84" r="4"/><circle fill="#3AA65E" cx="12" cy="4" r="4"/><g transform="translate(10 37)" fill="#FFF"><path d="M.5 0h3L3 8.75H1z"/><circle cx="2" cy="12" r="1.75"/></g><rect fill="#FFF" x="32" y="24" width="72" height="56" rx="2"/><path fill="#FFF" d="M36 38v12l-8-6z"/><rect fill="#000" x="38" y="30" width="40" height="4" rx="2"/><path fill="#000" d="M38 39h60v1H38zm0 4h60v1H38zm0 4h40v1H38zm0 6h60v1H38zm0 4h60v1H38zm0 4h40v1H38zm0 6h60v1H38zm0 4h24v1H38z"/></g></svg>