<svg width="104" height="104" xmlns="http://www.w3.org/2000/svg"><g fill="none" fill-rule="evenodd"><path opacity=".1" d="M0 0h104v104H0z"/><rect fill="#FFF" width="104" height="32" rx="2"/><path d="M4 4h24v24H4z"/><path fill="#F24C3D" d="M16 19.9l-5.878 4.29 2.264-6.916-5.897-4.264 7.277.016L16 6.1l2.234 6.926 7.277-.016-5.897 4.264 2.264 6.916z"/><rect fill="#1A1A1A" x="32" y="6" width="36" height="4" rx="2"/><rect fill="#999" x="86" y="6" width="12" height="4" rx="2"/><path fill="#1A1A1A" d="M32 15h44v1H32zm0 4h44v1H32zm0 4h28v1H32z"/><rect fill="#FFF" x="4" y="36" width="96" height="32" rx="2"/><path d="M8 40h24v24H8z"/><path fill="#E6E6E6" d="M20 55.9l-5.878 4.29 2.264-6.916-5.897-4.264 7.277.016L20 42.1l2.234 6.926 7.277-.016-5.897 4.264 2.264 6.916z"/><rect fill="#999" x="36" y="42" width="32" height="4" rx="2"/><rect fill="#E6E6E6" x="82" y="42" width="12" height="4" rx="2"/><path fill="#999" d="M36 51h40v1H36zm0 4h40v1H36zm0 4h24v1H36z"/><rect fill="#FFF" x="8" y="72" width="88" height="32" rx="2"/><path d="M12 76h24v24H12z"/><path fill="#E6E6E6" d="M24 91.9l-5.878 4.29 2.264-6.916-5.897-4.264 7.277.016L24 78.1l2.234 6.926 7.277-.016-5.897 4.264 2.264 6.916z"/><rect fill="#999" x="40" y="78" width="24" height="4" rx="2"/><rect fill="#E6E6E6" x="78" y="78" width="12" height="4" rx="2"/><path fill="#999" d="M40 87h32v1H40zm0 4h32v1H40zm0 4h16v1H40z"/></g></svg>