<svg width="104" height="104" xmlns="http://www.w3.org/2000/svg" xmlns:xlink="http://www.w3.org/1999/xlink"><defs><path id="a" d="M4 2h12v32l-5.999-6L4 34z"/><path id="c" d="M4 2h12v32l-5.999-6L4 34z"/></defs><g fill="none" fill-rule="evenodd"><path d="M0 0h104v104H0z"/><rect fill="#FFF" width="80" height="104" rx="2"/><g transform="translate(79 56)"><mask id="b" fill="#fff"><use xlink:href="#a"/></mask><use fill="#3AA65E" transform="rotate(-15 10 18)" xlink:href="#a"/><path d="M21.055-4c0-2.956 2.767-6.442 1.701-9.012-1.105-2.665-5.567-3.161-7.575-5.17-2.008-2.007-2.504-6.469-5.169-7.574-2.57-1.066-6.056 1.7-9.012 1.7-2.956 0-6.442-2.766-9.012-1.7-2.664 1.105-3.161 5.567-5.17 7.575-2.007 2.008-6.469 2.505-7.574 5.17-1.065 2.569 1.701 6.055 1.701 9.011 0 2.956-2.766 6.442-1.7 9.012 1.104 2.665 5.566 3.161 7.574 5.17 2.008 2.007 2.505 6.469 5.169 7.574 2.57 1.066 6.056-1.7 9.012-1.7 2.956 0 6.442 2.766 9.012 1.7 2.665-1.105 3.161-5.567 5.17-7.575 2.007-2.008 6.47-2.505 7.574-5.17 1.066-2.569-1.7-6.055-1.7-9.01" stroke="#E6E6E6" stroke-width="4" fill="#FFF" mask="url(#b)"/></g><g transform="translate(61 56)"><mask id="d" fill="#fff"><use xlink:href="#c"/></mask><use fill="#3AA65E" transform="rotate(15 10 18)" xlink:href="#c"/><path d="M39.055-4c0-2.956 2.767-6.442 1.701-9.012-1.105-2.665-5.567-3.161-7.575-5.17-2.008-2.007-2.504-6.469-5.169-7.574-2.57-1.066-6.056 1.7-9.012 1.7-2.956 0-6.442-2.766-9.012-1.7-2.664 1.105-3.161 5.567-5.17 7.575-2.007 2.008-6.469 2.505-7.574 5.17C-3.82-10.443-1.055-6.957-1.055-4c0 2.956-2.766 6.442-1.7 9.012 1.104 2.665 5.566 3.161 7.574 5.17 2.008 2.007 2.505 6.469 5.169 7.574 2.57 1.066 6.056-1.7 9.012-1.7 2.956 0 6.442 2.766 9.012 1.7 2.665-1.105 3.161-5.567 5.17-7.575 2.007-2.008 6.47-2.505 7.574-5.17 1.066-2.569-1.7-6.055-1.7-9.01" stroke="#FFF" stroke-width="4" fill="#FFF" mask="url(#d)"/></g><path d="M101.756 42.988c-1.105-2.665-5.567-3.16-7.575-5.169-2.008-2.008-2.504-6.47-5.169-7.575-2.57-1.065-6.057 1.701-9.012 1.701-2.956 0-6.442-2.766-9.012-1.7-2.665 1.105-3.161 5.567-5.17 7.574-2.007 2.008-6.469 2.505-7.574 5.17-1.065 2.57 1.701 6.056 1.701 9.011 0 2.956-2.766 6.442-1.7 9.012 1.104 2.665 5.566 3.161 7.574 5.17 2.008 2.007 2.504 6.469 5.169 7.574 2.57 1.066 6.056-1.7 9.012-1.7 2.955 0 6.442 2.766 9.012 1.7 2.665-1.105 3.16-5.567 5.169-7.575 2.008-2.008 6.47-2.504 7.575-5.169 1.065-2.57-1.701-6.056-1.701-9.012 0-2.955 2.766-6.442 1.7-9.012z" fill="#3AA65E"/><g transform="translate(68 40)"><circle stroke="#FFF" stroke-width="2" fill="#3AA65E" cx="12" cy="12" r="13"/><path d="M4 4h16v16H4z"/><path stroke="#FFF" stroke-width="2" stroke-linecap="square" d="M8 12.5l2.5 2.5L16 9.5"/></g><rect fill="#1A1A1A" x="12" y="12" width="36" height="4" rx="2"/><path fill="#1A1A1A" d="M12 21h48v1H12zm0 4h48v1H12z"/><path fill="#999" d="M12 87h32v1H12zm0 4h32v1H12z"/><path fill="#1A1A1A" d="M12 29h48v1H12zm0 4h32v1H12z"/></g></svg>