<svg xmlns="http://www.w3.org/2000/svg" width="104" height="104"><g fill="none" fill-rule="evenodd"><path d="M0 0h104v104H0z" opacity=".1"/><g transform="translate(6 6)"><path stroke="#000" stroke-linecap="square" stroke-opacity=".2" d="M11.5 79.5l68-68m-74-6l61 61m-21-50v74m-29-45h74"/><circle cx="49.5" cy="50.5" r="5.5" fill="#F24C3D" transform="rotate(-90 49.5 50.5)"/><circle cx="11.5" cy="79.5" r="5.5" fill="#3AA65E" transform="rotate(90 11.5 79.5)"/><circle cx="45.5" cy="90.5" r="5.5" fill="#F24C3D" transform="rotate(-180 45.5 90.5)"/><circle cx="90.5" cy="45.5" r="5.5" fill="#3AA65E"/><circle cx="79.5" cy="11.5" r="5.5" fill="#3AA65E" transform="rotate(-180 79.5 11.5)"/><circle cx="5.5" cy="5.5" r="5.5" fill="#3AA65E" transform="rotate(-90 5.5 5.5)"/><circle cx="16.5" cy="45.5" r="5.5" fill="#F24C3D"/><circle cx="66.5" cy="66.5" r="5.5" fill="#F24C3D"/><circle cx="45.5" cy="16.5" r="5.5" fill="#F24C3D"/><circle cx="45.5" cy="45.5" r="15.5" fill="#FFF"/></g></g></svg>