<?xml version="1.0" encoding="UTF-8"?>
<svg width="104px" height="104px" viewBox="0 0 104 104" version="1.1" xmlns="http://www.w3.org/2000/svg" xmlns:xlink="http://www.w3.org/1999/xlink">
    <!-- Generator: sketchtool 52.6 (67491) - http://www.bohemiancoding.com/sketch -->
    <title>8F3794CD-0888-4AFB-AAED-05848D04A6EC</title>
    <desc>Created with sketchtool.</desc>
    <g id="trash" stroke="none" stroke-width="1" fill="none" fill-rule="evenodd">
        <g id="INDEX/DESKTOP/SMALL" transform="translate(-524.000000, -728.000000)">
            <g id="graphic/main/img02" transform="translate(524.000000, 728.000000)">
                <rect id="Rectangle-Copy-10" opacity="0.100000001" x="0" y="0" width="104" height="104"></rect>
                <rect id="Rectangle" fill="#FFFFFF" fill-rule="evenodd" x="0" y="0" width="104" height="32" rx="2"></rect>
                <g id="Group-10-Copy" stroke-width="1" fill-rule="evenodd" transform="translate(4.000000, 4.000000)">
                    <rect id="Rectangle" x="0" y="0" width="24" height="24"></rect>
                    <polygon id="Star" fill="#F24C3D" points="12 15.9 6.12214748 20.1901699 8.38598524 13.2742646 2.48943484 9.00983006 9.76641604 9.02573542 12 2.1 14.233584 9.02573542 21.5105652 9.00983006 15.6140148 13.2742646 17.8778525 20.1901699"></polygon>
                </g>
                <rect id="Rectangle" fill="#1A1A1A" fill-rule="evenodd" x="32" y="6" width="36" height="4" rx="2"></rect>
                <rect id="Rectangle-Copy-14" fill="#999999" fill-rule="evenodd" x="86" y="6" width="12" height="4" rx="2"></rect>
                <rect id="Rectangle" fill="#1A1A1A" fill-rule="evenodd" x="32" y="15" width="44" height="1"></rect>
                <rect id="Rectangle" fill="#1A1A1A" fill-rule="evenodd" x="32" y="19" width="44" height="1"></rect>
                <rect id="Rectangle" fill="#1A1A1A" fill-rule="evenodd" x="32" y="23" width="28" height="1"></rect>
                <rect id="Rectangle" fill="#FFFFFF" fill-rule="evenodd" x="4" y="36" width="96" height="32" rx="2"></rect>
                <g id="Group-10-Copy" stroke-width="1" fill-rule="evenodd" transform="translate(8.000000, 40.000000)">
                    <rect id="Rectangle" x="0" y="0" width="24" height="24"></rect>
                    <polygon id="Star" fill="#E6E6E6" points="12 15.9 6.12214748 20.1901699 8.38598524 13.2742646 2.48943484 9.00983006 9.76641604 9.02573542 12 2.1 14.233584 9.02573542 21.5105652 9.00983006 15.6140148 13.2742646 17.8778525 20.1901699"></polygon>
                </g>
                <rect id="Rectangle" fill="#999999" fill-rule="evenodd" x="36" y="42" width="32" height="4" rx="2"></rect>
                <rect id="Rectangle-Copy-14" fill="#E6E6E6" fill-rule="evenodd" x="82" y="42" width="12" height="4" rx="2"></rect>
                <rect id="Rectangle" fill="#999999" fill-rule="evenodd" x="36" y="51" width="40" height="1"></rect>
                <rect id="Rectangle" fill="#999999" fill-rule="evenodd" x="36" y="55" width="40" height="1"></rect>
                <rect id="Rectangle" fill="#999999" fill-rule="evenodd" x="36" y="59" width="24" height="1"></rect>
                <rect id="Rectangle" fill="#FFFFFF" fill-rule="evenodd" x="8" y="72" width="88" height="32" rx="2"></rect>
                <g id="Group-10-Copy" stroke-width="1" fill-rule="evenodd" transform="translate(12.000000, 76.000000)">
                    <rect id="Rectangle" x="0" y="0" width="24" height="24"></rect>
                    <polygon id="Star" fill="#E6E6E6" points="12 15.9 6.12214748 20.1901699 8.38598524 13.2742646 2.48943484 9.00983006 9.76641604 9.02573542 12 2.1 14.233584 9.02573542 21.5105652 9.00983006 15.6140148 13.2742646 17.8778525 20.1901699"></polygon>
                </g>
                <rect id="Rectangle" fill="#999999" fill-rule="evenodd" x="40" y="78" width="24" height="4" rx="2"></rect>
                <rect id="Rectangle-Copy-14" fill="#E6E6E6" fill-rule="evenodd" x="78" y="78" width="12" height="4" rx="2"></rect>
                <rect id="Rectangle" fill="#999999" fill-rule="evenodd" x="40" y="87" width="32" height="1"></rect>
                <rect id="Rectangle" fill="#999999" fill-rule="evenodd" x="40" y="91" width="32" height="1"></rect>
                <rect id="Rectangle" fill="#999999" fill-rule="evenodd" x="40" y="95" width="16" height="1"></rect>
            </g>
        </g>
    </g>
</svg>