<svg width="104" height="104" xmlns="http://www.w3.org/2000/svg" xmlns:xlink="http://www.w3.org/1999/xlink"><defs><path d="M40 63.5V88H0V63.5C0 57.16 5.333 50.66 16 44 5.333 37.34 0 30.84 0 24.5V0h40v24.5c0 6.34-5.333 12.84-16 19.5 10.667 6.66 16 13.16 16 19.5z" id="a"/></defs><g fill="none" fill-rule="evenodd"><path opacity=".23" d="M0 0h104v104H0z"/><g transform="rotate(15 19.01 155.84)"><g transform="translate(4 3)"><mask id="b" fill="#fff"><use xlink:href="#a"/></mask><use fill="#FFF" xlink:href="#a"/><path d="M-12.124 12.675l20.796 6.05a24 24 0 0 0 13.408 0l20.796-6.05v32h-55v-32z" fill="#3AA65E" mask="url(#b)" transform="rotate(-15 15.376 28.675)"/><path d="M4.76 90.32l23.476-13.659a8 8 0 0 1 8.046 0l23.477 13.66v11h-55v-11z" fill="#3AA65E" mask="url(#b)" transform="rotate(-15 32.26 87.82)"/><path d="M40 63.5V88H0V63.5C0 57.16 5.333 50.66 16 44 5.333 37.34 0 30.84 0 24.5V0h40v24.5c0 6.34-5.333 12.84-16 19.5 10.667 6.66 16 13.16 16 19.5z" stroke="#FFF" stroke-width="4" mask="url(#b)"/></g><rect fill="#1A1A1A" width="48" height="8" rx="2"/><rect fill="#1A1A1A" y="86" width="48" height="8" rx="2"/></g><path fill="#3AA65E" d="M52 48h1v40h-1z"/><circle fill="#FFF" opacity=".5" cx="53" cy="32" r="1"/><circle fill="#FFF" opacity=".5" cx="54" cy="90" r="1"/><circle fill="#FFF" opacity=".5" cx="73" cy="26" r="1"/><circle fill="#FFF" opacity=".5" cx="53" cy="44" r="2"/><circle fill="#FFF" opacity=".5" cx="46" cy="36" r="1"/><circle fill="#FFF" opacity=".5" cx="63" cy="42" r="1"/><circle fill="#FFF" opacity=".5" cx="67" cy="36" r="2"/></g></svg>