<?xml version="1.0" encoding="UTF-8"?>
<svg width="104px" height="104px" viewBox="0 0 104 104" version="1.1" xmlns="http://www.w3.org/2000/svg" xmlns:xlink="http://www.w3.org/1999/xlink">
    <!-- Generator: sketchtool 52.6 (67491) - http://www.bohemiancoding.com/sketch -->
    <title>59F9B8A5-775B-4796-B4C2-A43CC58E39D9</title>
    <desc>Created with sketchtool.</desc>
    <g id="Symbols" stroke="none" stroke-width="1" fill="none" fill-rule="evenodd">
        <g id="graphic/main/img06">
            <g id="Group-27">
                <rect id="Rectangle-Copy-13" opacity="0.300000012" x="0" y="0" width="104" height="104"></rect>
                <rect id="Rectangle" fill="#FFFFFF" x="0" y="0" width="80" height="104" rx="2"></rect>
                <circle id="Oval" stroke="#FFFFFF" stroke-width="2" fill="#E5E5E5" cx="50" cy="80" r="9"></circle>
                <circle id="Oval" stroke="#FFFFFF" stroke-width="2" fill="#9CD2AE" cx="64" cy="80" r="13"></circle>
                <rect id="Rectangle" fill="#1A1A1A" x="12" y="12" width="36" height="4" rx="2"></rect>
                <rect id="Rectangle" fill="#1A1A1A" x="12" y="25" width="42" height="1"></rect>
                <rect id="Rectangle" fill="#1A1A1A" x="12" y="29" width="26" height="1"></rect>
                <rect id="Rectangle" fill="#1A1A1A" x="12" y="21" width="42" height="1"></rect>
                <rect id="Rectangle" fill="#999999" x="12" y="37" width="26" height="1"></rect>
                <rect id="Rectangle" fill="#999999" x="42" y="37" width="26" height="1"></rect>
                <rect id="Rectangle" fill="#999999" x="12" y="41" width="26" height="1"></rect>
                <rect id="Rectangle" fill="#999999" x="42" y="41" width="26" height="1"></rect>
                <rect id="Rectangle" fill="#999999" x="12" y="45" width="26" height="1"></rect>
                <rect id="Rectangle" fill="#999999" x="42" y="45" width="26" height="1"></rect>
                <rect id="Rectangle" fill="#999999" x="12" y="49" width="26" height="1"></rect>
                <rect id="Rectangle" fill="#999999" x="42" y="49" width="26" height="1"></rect>
                <rect id="Rectangle" fill="#999999" x="12" y="53" width="26" height="1"></rect>
                <rect id="Rectangle" fill="#999999" x="42" y="53" width="26" height="1"></rect>
                <rect id="Rectangle" fill="#999999" x="12" y="57" width="26" height="1"></rect>
                <rect id="Rectangle" fill="#999999" x="42" y="57" width="26" height="1"></rect>
                <g id="Group-15" transform="translate(64.000000, 62.000000)">
                    <g id="Group-4">
                        <g id="Group-9"></g>
                    </g>
                    <g id="icon/sharesave/L/normal" transform="translate(9.000000, 9.000000)">
                        <g id="Group">
                            <g id="Group-25"></g>
                        </g>
                    </g>
                </g>
                <path d="M80,62 C70.0588745,62 62,70.0588745 62,80 C62,89.9411255 70.0588745,98 80,98" id="Path" fill="#FFFFFF"></path>
                <g id="Group-2" transform="translate(64.000000, 64.000000)">
                    <circle id="Oval" fill="#3AA65E" cx="16" cy="16" r="16"></circle>
                    <rect id="Rectangle" fill="#FFFFFF" x="8" y="21" width="16" height="2"></rect>
                    <rect id="Rectangle" fill="#FFFFFF" x="15" y="9" width="2" height="9"></rect>
                    <polygon id="Rectangle" fill="#FFFFFF" points="13 16 19 16 16 19.75"></polygon>
                </g>
            </g>
        </g>
    </g>
</svg>