<?xml version="1.0" encoding="UTF-8"?>
<svg width="104px" height="104px" viewBox="0 0 104 104" version="1.1" xmlns="http://www.w3.org/2000/svg" xmlns:xlink="http://www.w3.org/1999/xlink">
    <!-- Generator: sketchtool 52.6 (67491) - http://www.bohemiancoding.com/sketch -->
    <title>1A482F20-B64B-43E8-9361-76044C73BD9B</title>
    <desc>Created with sketchtool.</desc>
    <g id="trash" stroke="none" stroke-width="1" fill="none" fill-rule="evenodd">
        <g id="INDEX/DESKTOP/SMALL" transform="translate(-40.000000, -728.000000)">
            <g id="graphic/main/img01" transform="translate(40.000000, 728.000000)">
                <rect id="Rectangle-Copy-40" opacity="0.200000003" x="0" y="0" width="104" height="104"></rect>
                <rect id="Rectangle-Copy-41" fill="#FFFFFF" fill-rule="evenodd" x="32" y="0" width="72" height="32" rx="2"></rect>
                <rect id="Rectangle-Copy-42" fill="#FFFFFF" fill-rule="evenodd" x="32" y="36" width="72" height="32" rx="2"></rect>
                <rect id="Rectangle-Copy-43" fill="#FFFFFF" fill-rule="evenodd" x="32" y="72" width="72" height="32" rx="2"></rect>
                <path d="M96,97 L40,97 L40,91.25 L71.1875,55.875 C76.3541925,49.9166369 79.93749,45.0000194 81.9375,41.125 C83.93751,37.2499806 84.9375,33.479185 84.9375,29.8125 C84.9375,24.0624713 83.2500169,19.5104334 79.875,16.15625 C76.4999831,12.8020666 71.8541963,11.125 65.9375,11.125 C59.8124694,11.125 54.8646022,13.0833138 51.09375,17 C47.3228978,20.9166862 45.4375,25.9999687 45.4375,32.25 L38,32.25 C38,27.1249744 39.1562384,22.4583544 41.46875,18.25 C43.7812616,14.0416456 47.0728953,10.7395953 51.34375,8.34375 C55.6146047,5.94790469 60.4791394,4.75 65.9375,4.75 C74.270875,4.75 80.7812266,6.93747812 85.46875,11.3125 C90.1562734,15.6875219 92.5,21.6457956 92.5,29.1875 C92.5,33.4375213 91.1770966,38.0833081 88.53125,43.125 C85.8854034,48.1666919 81.2292,54.4582956 74.5625,62 L49.1,91 L96,91 L96,97 Z" id="2-copy-3" fill="#E6E6E6" fill-rule="evenodd"></path>
                <rect id="Rectangle-Copy-44" fill="#FFFFFF" fill-rule="evenodd" x="0" y="0" width="28" height="53" rx="2"></rect>
                <rect id="Rectangle-Copy-45" fill="#E6E6E6" fill-rule="evenodd" x="0" y="11" width="28" height="1"></rect>
                <rect id="Rectangle-Copy-45" fill="#E6E6E6" fill-rule="evenodd" x="0" y="5" width="28" height="1"></rect>
                <rect id="Rectangle-Copy-46" fill="#E6E6E6" fill-rule="evenodd" x="0" y="17" width="28" height="1"></rect>
                <rect id="Rectangle-Copy-47" fill="#E6E6E6" fill-rule="evenodd" x="0" y="23" width="28" height="1"></rect>
                <rect id="Rectangle-Copy-48" fill="#E6E6E6" fill-rule="evenodd" x="0" y="29" width="28" height="1"></rect>
                <rect id="Rectangle-Copy-49" fill="#E6E6E6" fill-rule="evenodd" x="0" y="35" width="28" height="1"></rect>
                <rect id="Rectangle-Copy-50" fill="#E6E6E6" fill-rule="evenodd" x="0" y="41" width="28" height="1"></rect>
                <rect id="Rectangle-Copy-51" fill="#E6E6E6" fill-rule="evenodd" x="0" y="47" width="28" height="1"></rect>
                <g id="Group-21" stroke-width="1" fill-rule="evenodd" transform="translate(36.000000, 5.000000)" fill="#E6E6E6">
                    <rect id="Rectangle" x="0" y="0" width="24" height="1"></rect>
                    <rect id="Rectangle" x="0" y="4" width="24" height="1"></rect>
                    <rect id="Rectangle" x="0" y="8" width="24" height="1"></rect>
                    <rect id="Rectangle" x="28" y="0" width="16" height="1"></rect>
                    <rect id="Rectangle" x="28" y="4" width="16" height="1"></rect>
                    <rect id="Rectangle" x="28" y="8" width="16" height="1"></rect>
                    <rect id="Rectangle" x="48" y="0" width="16" height="1"></rect>
                    <rect id="Rectangle" x="48" y="4" width="16" height="1"></rect>
                    <rect id="Rectangle" x="48" y="8" width="16" height="1"></rect>
                </g>
                <g id="Group-21" stroke-width="1" fill-rule="evenodd" transform="translate(36.000000, 41.000000)" fill="#E6E6E6">
                    <rect id="Rectangle" x="0" y="0" width="24" height="1"></rect>
                    <rect id="Rectangle" x="0" y="4" width="24" height="1"></rect>
                    <rect id="Rectangle" x="0" y="8" width="24" height="1"></rect>
                    <rect id="Rectangle" x="28" y="0" width="16" height="1"></rect>
                    <rect id="Rectangle" x="28" y="4" width="16" height="1"></rect>
                    <rect id="Rectangle" x="28" y="8" width="16" height="1"></rect>
                    <rect id="Rectangle" x="48" y="0" width="16" height="1"></rect>
                    <rect id="Rectangle" x="48" y="4" width="16" height="1"></rect>
                    <rect id="Rectangle" x="48" y="8" width="16" height="1"></rect>
                </g>
                <g id="Group-21" stroke-width="1" fill-rule="evenodd" transform="translate(36.000000, 77.000000)" fill="#E6E6E6">
                    <rect id="Rectangle" x="0" y="0" width="24" height="1"></rect>
                    <rect id="Rectangle" x="0" y="4" width="24" height="1"></rect>
                    <rect id="Rectangle" x="0" y="8" width="24" height="1"></rect>
                    <rect id="Rectangle" x="28" y="0" width="16" height="1"></rect>
                    <rect id="Rectangle" x="28" y="4" width="16" height="1"></rect>
                    <rect id="Rectangle" x="28" y="8" width="16" height="1"></rect>
                    <rect id="Rectangle" x="48" y="0" width="16" height="1"></rect>
                    <rect id="Rectangle" x="48" y="4" width="16" height="1"></rect>
                    <rect id="Rectangle" x="48" y="8" width="16" height="1"></rect>
                </g>
                <g id="Group-20-Copy-2" stroke-width="1" fill-rule="evenodd" transform="translate(5.000000, 5.000000)" fill="#E6E6E6">
                    <polygon id="Rectangle" points="10 6 16 0 16 43 10 43"></polygon>
                    <polygon id="Rectangle" points="-9.14823772e-14 7 16 -1.39444012e-13 16 6 -9.14823772e-14 13"></polygon>
                </g>
            </g>
        </g>
    </g>
</svg>