<svg width="104" height="104" xmlns="http://www.w3.org/2000/svg"><g fill="none" fill-rule="evenodd"><path opacity=".2" d="M0 0h104v104H0z"/><rect fill="#FFF" x="32" width="72" height="32" rx="2"/><rect fill="#FFF" x="32" y="36" width="72" height="32" rx="2"/><rect fill="#FFF" x="32" y="72" width="72" height="32" rx="2"/><path d="M96 97H40v-5.75l31.188-35.375c5.166-5.958 8.75-10.875 10.75-14.75s3-7.646 3-11.313c0-5.75-1.688-10.302-5.063-13.656-3.375-3.354-8.02-5.031-13.938-5.031-6.125 0-11.072 1.958-14.843 5.875-3.771 3.917-5.657 9-5.657 15.25H38c0-5.125 1.156-9.792 3.469-14 2.312-4.208 5.604-7.51 9.875-9.906 4.27-2.396 9.135-3.594 14.593-3.594 8.334 0 14.844 2.187 19.532 6.563 4.687 4.375 7.031 10.333 7.031 17.874 0 4.25-1.323 8.896-3.969 13.938S81.23 54.458 74.562 62L49.1 91H96v6z" fill="#E6E6E6"/><rect fill="#FFF" width="28" height="53" rx="2"/><path fill="#E6E6E6" d="M0 11h28v1H0zm0-6h28v1H0zm0 12h28v1H0zm0 6h28v1H0zm0 6h28v1H0zm0 6h28v1H0zm0 6h28v1H0zm0 6h28v1H0zM36 5h24v1H36zm0 4h24v1H36zm0 4h24v1H36zm28-8h16v1H64zm0 4h16v1H64zm0 4h16v1H64zm20-8h16v1H84zm0 4h16v1H84zm0 4h16v1H84zM36 41h24v1H36zm0 4h24v1H36zm0 4h24v1H36zm28-8h16v1H64zm0 4h16v1H64zm0 4h16v1H64zm20-8h16v1H84zm0 4h16v1H84zm0 4h16v1H84zM36 77h24v1H36zm0 4h24v1H36zm0 4h24v1H36zm28-8h16v1H64zm0 4h16v1H64zm0 4h16v1H64zm20-8h16v1H84zm0 4h16v1H84zm0 4h16v1H84z"/><g fill="#E6E6E6"><path d="M15 11l6-6v43h-6z"/><path d="M5 12l16-7v6L5 18z"/></g></g></svg>