<svg width="104" height="104" xmlns="http://www.w3.org/2000/svg"><g fill="none" fill-rule="evenodd"><path opacity=".23" d="M0 0h104v104H0z"/><path d="M66.272 76.012L59.93 99.677 21.293 89.324l6.342-23.665c1.64-6.125 8.475-11.023 20.501-14.694-8.58-9.193-12.049-16.852-10.408-22.977L44.07 4.323l38.637 10.353-6.342 23.665c-1.64 6.125-8.475 11.023-20.501 14.694 8.58 9.193 12.049 16.852 10.408 22.977z" fill="#FFF"/><path d="M38.83 91.953l9.647-5.612A7.993 7.993 0 0 1 52 85.27V52a1.37 1.37 0 0 1-.216-.058L49.598 49.6c-8.156-8.74-11.356-15.802-9.938-21.094l.982-3.665 4.154 1.209a24 24 0 0 0 13.408 0L79 20l-.051.973-4.515 16.85c-1.418 5.292-7.72 9.809-19.154 13.3l-2.28.694V85.27a7.993 7.993 0 0 1 3.523 1.07l4.248 2.471-2.255 8.416-19.685-5.275z" fill="#3AA65E"/><path d="M42.914.907l42.5 11.389a2 2 0 0 1 1.415 2.449l-1.035 3.864a2 2 0 0 1-2.45 1.414l-42.5-11.388a2 2 0 0 1-1.415-2.45l1.036-3.863a2 2 0 0 1 2.45-1.415zm-22.258 83.07l42.5 11.388a2 2 0 0 1 1.415 2.45l-1.036 3.863a2 2 0 0 1-2.45 1.415l-42.5-11.389a2 2 0 0 1-1.414-2.449l1.035-3.864a2 2 0 0 1 2.45-1.414z" fill="#1A1A1A"/><circle fill="#FFF" opacity=".5" cx="53" cy="32" r="1"/><circle fill="#FFF" opacity=".5" cx="54" cy="90" r="1"/><circle fill="#FFF" opacity=".5" cx="73" cy="26" r="1"/><circle fill="#FFF" opacity=".5" cx="53" cy="44" r="2"/><circle fill="#FFF" opacity=".5" cx="46" cy="36" r="1"/><circle fill="#FFF" opacity=".5" cx="63" cy="42" r="1"/><circle fill="#FFF" opacity=".5" cx="67" cy="36" r="2"/></g></svg>