<svg width="104" height="104" xmlns="http://www.w3.org/2000/svg"><g fill="none" fill-rule="evenodd"><path opacity=".3" d="M0 0h104v104H0z"/><rect fill="#FFF" width="80" height="104" rx="2"/><circle stroke="#FFF" stroke-width="2" fill="#E5E5E5" cx="50" cy="80" r="9"/><circle stroke="#FFF" stroke-width="2" fill="#9CD2AE" cx="64" cy="80" r="13"/><rect fill="#1A1A1A" x="12" y="12" width="36" height="4" rx="2"/><path fill="#1A1A1A" d="M12 25h42v1H12zm0 4h26v1H12zm0-8h42v1H12z"/><path fill="#999" d="M12 37h26v1H12zm30 0h26v1H42zm-30 4h26v1H12zm30 0h26v1H42zm-30 4h26v1H12zm30 0h26v1H42zm-30 4h26v1H12zm30 0h26v1H42zm-30 4h26v1H12zm30 0h26v1H42zm-30 4h26v1H12zm30 0h26v1H42z"/><path d="M80 62c-9.941 0-18 8.059-18 18s8.059 18 18 18" fill="#FFF"/><g transform="translate(64 64)"><circle fill="#3AA65E" cx="16" cy="16" r="16"/><path fill="#FFF" d="M8 21h16v2H8zm7-12h2v9h-2z"/><path fill="#FFF" d="M13 16h6l-3 3.75z"/></g></g></svg>