<?xml version="1.0" encoding="UTF-8"?>
<svg width="226px" height="302px" viewBox="0 0 226 302" version="1.1" xmlns="http://www.w3.org/2000/svg" xmlns:xlink="http://www.w3.org/1999/xlink">
    <!-- Generator: Sketch 57.1 (83088) - https://sketch.com -->
    <title>Badge_2 Copy 3</title>
    <desc>Created with Sketch.</desc>
    <g id="Badge_2-Copy-3" stroke="none" stroke-width="1" fill="none" fill-rule="evenodd">
        <g id="Group-45-Copy-2">
            <rect id="Rectangle" stroke="#FFFFFF" fill="#191919" x="0" y="0" width="226" height="302" rx="4"></rect>
            <g id="Group-25" transform="translate(68.000000, 211.000000)">
                <text id="15-000-₽" font-family="Roboto-Medium, Roboto" font-size="22" font-weight="400" fill="#FFFFFF">
                    <tspan x="0.764705882" y="22.4493464">15 000 ₽</tspan>
                </text>
                <g id="graphic/main/line/xs">
                    <g id="Group-2">
                        <g id="Group">
                            <rect id="Rectangle" x="0" y="0" width="91" height="32"></rect>
                            <path d="M4.13636364,26.6666667 L86.8636364,5.33333333" id="Line" stroke="#F24C3D" stroke-width="3"></path>
                        </g>
                    </g>
                </g>
            </g>
            <path d="M55.6484375,170.671875 L42.453125,201 L35.3046875,201 L48.5234375,172.359375 L31.5546875,172.359375 L31.5546875,166.875 L55.6484375,166.875 L55.6484375,170.671875 Z M70.7890625,184.21875 L72.7578125,166.875 L91.8828125,166.875 L91.8828125,172.523438 L78.3125,172.523438 L77.46875,179.859375 C79.078133,178.999996 80.7890534,178.570312 82.6015625,178.570312 C85.8515788,178.570312 88.3984283,179.578115 90.2421875,181.59375 C92.0859467,183.609385 93.0078125,186.429669 93.0078125,190.054688 C93.0078125,192.257824 92.5429734,194.23046 91.6132812,195.972656 C90.6835891,197.714852 89.3515712,199.066401 87.6171875,200.027344 C85.8828038,200.988286 83.8359493,201.46875 81.4765625,201.46875 C79.4140522,201.46875 77.5000088,201.050785 75.734375,200.214844 C73.9687412,199.378902 72.5742239,198.203133 71.5507812,196.6875 C70.5273386,195.171867 69.9843753,193.445322 69.921875,191.507812 L76.625,191.507812 C76.7656257,192.929695 77.2617145,194.035152 78.1132812,194.824219 C78.964848,195.613285 80.0781181,196.007812 81.453125,196.007812 C82.9843827,196.007812 84.1640584,195.457037 84.9921875,194.355469 C85.8203166,193.253901 86.234375,191.695323 86.234375,189.679688 C86.234375,187.742178 85.7578173,186.257818 84.8046875,185.226562 C83.8515577,184.195307 82.5000088,183.679688 80.75,183.679688 C79.140617,183.679688 77.8359425,184.101558 76.8359375,184.945312 L76.1796875,185.554688 L70.7890625,184.21875 Z M120.289062,186.890625 C120.289062,191.609399 119.31251,195.218738 117.359375,197.71875 C115.40624,200.218762 112.546894,201.46875 108.78125,201.46875 C105.062481,201.46875 102.21876,200.2422 100.25,197.789062 C98.2812402,195.335925 97.2734377,191.820335 97.2265625,187.242188 L97.2265625,180.960938 C97.2265625,176.195289 98.2148339,172.578137 100.191406,170.109375 C102.167979,167.640613 105.015606,166.40625 108.734375,166.40625 C112.453144,166.40625 115.296865,167.628894 117.265625,170.074219 C119.234385,172.519543 120.242187,176.031227 120.289062,180.609375 L120.289062,186.890625 Z M113.515625,180 C113.515625,177.171861 113.12891,175.113288 112.355469,173.824219 C111.582027,172.53515 110.375008,171.890625 108.734375,171.890625 C107.140617,171.890625 105.964848,172.5039 105.207031,173.730469 C104.449215,174.957037 104.046875,176.874987 104,179.484375 L104,187.78125 C104,190.562514 104.378902,192.628899 105.136719,193.980469 C105.894535,195.332038 107.109367,196.007812 108.78125,196.007812 C110.437508,196.007812 111.632809,195.359381 112.367188,194.0625 C113.101566,192.765619 113.484375,190.781263 113.515625,188.109375 L113.515625,180 Z M147.828125,186.890625 C147.828125,191.609399 146.851572,195.218738 144.898438,197.71875 C142.945303,200.218762 140.085956,201.46875 136.320312,201.46875 C132.601544,201.46875 129.757822,200.2422 127.789062,197.789062 C125.820303,195.335925 124.8125,191.820335 124.765625,187.242188 L124.765625,180.960938 C124.765625,176.195289 125.753896,172.578137 127.730469,170.109375 C129.707041,167.640613 132.554669,166.40625 136.273438,166.40625 C139.992206,166.40625 142.835928,167.628894 144.804688,170.074219 C146.773447,172.519543 147.78125,176.031227 147.828125,180.609375 L147.828125,186.890625 Z M141.054688,180 C141.054688,177.171861 140.667973,175.113288 139.894531,173.824219 C139.12109,172.53515 137.914071,171.890625 136.273438,171.890625 C134.67968,171.890625 133.50391,172.5039 132.746094,173.730469 C131.988277,174.957037 131.585938,176.874987 131.539062,179.484375 L131.539062,187.78125 C131.539062,190.562514 131.917965,192.628899 132.675781,193.980469 C133.433598,195.332038 134.648429,196.007812 136.320312,196.007812 C137.976571,196.007812 139.171871,195.359381 139.90625,194.0625 C140.640629,192.765619 141.023437,190.781263 141.054688,188.109375 L141.054688,180 Z M182.46875,196.453125 L175.015625,196.453125 L175.015625,201 L167.984375,201 L167.984375,196.453125 L163.226562,196.453125 L163.226562,190.757812 L167.984375,190.757812 L167.984375,188.976562 L163.226562,188.976562 L163.226562,183.28125 L167.984375,183.28125 L167.984375,166.875 L181.25,166.875 C183.812513,166.875 186.06249,167.335933 188,168.257812 C189.93751,169.179692 191.441401,170.496085 192.511719,172.207031 C193.582037,173.917977 194.117188,175.867177 194.117188,178.054688 C194.117188,181.429704 192.972668,184.09374 190.683594,186.046875 C188.39452,188.00001 185.210958,188.976562 181.132812,188.976562 L175.015625,188.976562 L175.015625,190.757812 L182.46875,190.757812 L182.46875,196.453125 Z M175.015625,183.28125 L181.085938,183.28125 C185.023457,183.28125 186.992188,181.554705 186.992188,178.101562 C186.992188,176.460929 186.492192,175.136724 185.492188,174.128906 C184.492183,173.121089 183.109384,172.609375 181.34375,172.59375 L175.015625,172.59375 L175.015625,183.28125 Z" id="7500₽" fill="#FFFFFF" fill-rule="nonzero"></path>
            <path d="M50.6210938,259.078125 L46.9492188,259.078125 L46.9492188,266 L45.0585938,266 L45.0585938,257.546875 L50.6210938,257.546875 L50.6210938,259.078125 Z M51.3398438,261.695312 C51.3398438,260.867183 51.5039046,260.121097 51.8320312,259.457031 C52.1601579,258.792965 52.6210908,258.282554 53.2148438,257.925781 C53.8085967,257.569009 54.4908816,257.390625 55.2617188,257.390625 C56.4023495,257.390625 57.3281214,257.757809 58.0390625,258.492188 C58.7500036,259.226566 59.1341143,260.200515 59.1914062,261.414062 L59.1992188,261.859375 C59.1992188,262.692713 59.0390641,263.437497 58.71875,264.09375 C58.3984359,264.750003 57.9401071,265.257811 57.34375,265.617188 C56.7473929,265.976564 56.0585977,266.15625 55.2773438,266.15625 C54.0846295,266.15625 53.1302119,265.759119 52.4140625,264.964844 C51.6979131,264.170569 51.3398438,263.111986 51.3398438,261.789062 L51.3398438,261.695312 Z M53.2382812,261.859375 C53.2382812,262.729171 53.417967,263.410154 53.7773438,263.902344 C54.1367205,264.394534 54.6367155,264.640625 55.2773438,264.640625 C55.917972,264.640625 56.4166649,264.390627 56.7734375,263.890625 C57.1302101,263.390623 57.3085938,262.658859 57.3085938,261.695312 C57.3085938,260.841142 57.1250018,260.164065 56.7578125,259.664062 C56.3906232,259.16406 55.8919302,258.914062 55.2617188,258.914062 C54.641924,258.914062 54.1497414,259.160154 53.7851562,259.652344 C53.4205711,260.144534 53.2382812,260.880203 53.2382812,261.859375 Z M60.8398438,264.484375 C61.365888,263.89583 61.7187491,263.337242 61.8984375,262.808594 C62.0781259,262.279945 62.1861977,261.604171 62.2226562,260.78125 L62.3320312,257.546875 L68.1992188,257.546875 L68.1992188,264.484375 L69.3710938,264.484375 L69.3710938,268.515625 L67.4804688,268.515625 L67.4804688,266 L62.0585938,266 L62.0585938,268.515625 L60.1367188,268.515625 L60.1445312,264.484375 L60.8398438,264.484375 Z M63.0664062,264.484375 L66.3085938,264.484375 L66.3085938,259.179688 L64.1757812,259.179688 L64.1210938,260.796875 C64.0481767,262.348966 63.6966177,263.57812 63.0664062,264.484375 Z M70.3710938,261.695312 C70.3710938,260.867183 70.5351546,260.121097 70.8632812,259.457031 C71.1914079,258.792965 71.6523408,258.282554 72.2460938,257.925781 C72.8398467,257.569009 73.5221316,257.390625 74.2929688,257.390625 C75.4335995,257.390625 76.3593714,257.757809 77.0703125,258.492188 C77.7812536,259.226566 78.1653643,260.200515 78.2226562,261.414062 L78.2304688,261.859375 C78.2304688,262.692713 78.0703141,263.437497 77.75,264.09375 C77.4296859,264.750003 76.9713571,265.257811 76.375,265.617188 C75.7786429,265.976564 75.0898477,266.15625 74.3085938,266.15625 C73.1158795,266.15625 72.1614619,265.759119 71.4453125,264.964844 C70.7291631,264.170569 70.3710938,263.111986 70.3710938,261.789062 L70.3710938,261.695312 Z M72.2695312,261.859375 C72.2695312,262.729171 72.449217,263.410154 72.8085938,263.902344 C73.1679705,264.394534 73.6679655,264.640625 74.3085938,264.640625 C74.949222,264.640625 75.4479149,264.390627 75.8046875,263.890625 C76.1614601,263.390623 76.3398438,262.658859 76.3398438,261.695312 C76.3398438,260.841142 76.1562518,260.164065 75.7890625,259.664062 C75.4218732,259.16406 74.9231802,258.914062 74.2929688,258.914062 C73.673174,258.914062 73.1809914,259.160154 72.8164062,259.652344 C72.4518211,260.144534 72.2695312,260.880203 72.2695312,261.859375 Z M79.9804688,266 L79.9804688,257.546875 L83.4101562,257.546875 C84.566412,257.546875 85.4466116,257.748696 86.0507812,258.152344 C86.6549509,258.555992 86.9570312,259.135413 86.9570312,259.890625 C86.9570312,260.281252 86.8359387,260.631509 86.59375,260.941406 C86.3515613,261.251304 85.993492,261.489582 85.5195312,261.65625 C86.0716173,261.770834 86.509113,262.002602 86.8320312,262.351562 C87.1549495,262.700523 87.3164062,263.111977 87.3164062,263.585938 C87.3164062,264.3724 87.0260446,264.971352 86.4453125,265.382812 C85.8645804,265.794273 85.0299534,266 83.9414062,266 L79.9804688,266 Z M81.8789062,262.398438 L81.8789062,264.5 L83.9570312,264.5 C84.9309945,264.5 85.4179688,264.151045 85.4179688,263.453125 C85.4179688,262.749996 84.923182,262.398438 83.9335938,262.398438 L81.8789062,262.398438 Z M81.8789062,261.039062 L83.4414062,261.039062 C84.5195366,261.039062 85.0585938,260.721357 85.0585938,260.085938 C85.0585938,259.419267 84.5481822,259.075521 83.5273438,259.054688 L81.8789062,259.054688 L81.8789062,261.039062 Z M94.0039062,266 C93.9205725,265.838541 93.8476566,265.575523 93.7851562,265.210938 C93.1809866,265.841149 92.4414106,266.15625 91.5664062,266.15625 C90.7174437,266.15625 90.0247423,265.914065 89.4882812,265.429688 C88.9518202,264.94531 88.6835938,264.346358 88.6835938,263.632812 C88.6835938,262.731766 89.0182258,262.040367 89.6875,261.558594 C90.3567742,261.076821 91.3137959,260.835938 92.5585938,260.835938 L93.7226562,260.835938 L93.7226562,260.28125 C93.7226562,259.843748 93.6002616,259.493491 93.3554688,259.230469 C93.1106759,258.967447 92.7382837,258.835938 92.2382812,258.835938 C91.8059874,258.835938 91.4518243,258.944009 91.1757812,259.160156 C90.8997382,259.376303 90.7617188,259.65104 90.7617188,259.984375 L88.8632812,259.984375 C88.8632812,259.520831 89.0169255,259.087242 89.3242188,258.683594 C89.631512,258.279946 90.0494765,257.963543 90.578125,257.734375 C91.1067735,257.505207 91.6966113,257.390625 92.3476562,257.390625 C93.3372445,257.390625 94.1262991,257.63932 94.7148438,258.136719 C95.3033884,258.634117 95.6054687,259.333329 95.6210938,260.234375 L95.6210938,264.046875 C95.6210938,264.807295 95.7278635,265.41406 95.9414062,265.867188 L95.9414062,266 L94.0039062,266 Z M91.9179688,264.632812 C92.2929706,264.632812 92.6458317,264.541668 92.9765625,264.359375 C93.3072933,264.177082 93.5559888,263.932293 93.7226562,263.625 L93.7226562,262.03125 L92.6992188,262.03125 C91.9960902,262.03125 91.4674497,262.153645 91.1132812,262.398438 C90.7591128,262.64323 90.5820312,262.989581 90.5820312,263.4375 C90.5820312,263.802085 90.7031238,264.092447 90.9453125,264.308594 C91.1875012,264.524741 91.5117167,264.632812 91.9179688,264.632812 Z M104.378906,257.546875 L104.378906,266 L102.488281,266 L102.488281,262.898438 L100.714844,262.898438 L98.9101562,266 L96.9414062,266 L98.9335938,262.585938 C98.4127578,262.367186 98.0130222,262.05469 97.734375,261.648438 C97.4557278,261.242185 97.3164062,260.776044 97.3164062,260.25 C97.3164062,259.463538 97.6197886,258.819013 98.2265625,258.316406 C98.8333364,257.8138 99.6523386,257.557292 100.683594,257.546875 L104.378906,257.546875 Z M99.2148438,260.296875 C99.2148438,260.651043 99.3463529,260.938801 99.609375,261.160156 C99.8723971,261.381512 100.209633,261.492188 100.621094,261.492188 L102.488281,261.492188 L102.488281,259.054688 L100.738281,259.054688 C100.274737,259.054688 99.9049493,259.171874 99.6289062,259.40625 C99.3528632,259.640626 99.2148438,259.937498 99.2148438,260.296875 Z M117.636719,266 L115.738281,266 L115.738281,259.078125 L112.441406,259.078125 L112.441406,266 L110.542969,266 L110.542969,257.546875 L117.636719,257.546875 L117.636719,266 Z M119.300781,261.695312 C119.300781,260.867183 119.464842,260.121097 119.792969,259.457031 C120.121095,258.792965 120.582028,258.282554 121.175781,257.925781 C121.769534,257.569009 122.451819,257.390625 123.222656,257.390625 C124.363287,257.390625 125.289059,257.757809 126,258.492188 C126.710941,259.226566 127.095052,260.200515 127.152344,261.414062 L127.160156,261.859375 C127.160156,262.692713 127.000002,263.437497 126.679688,264.09375 C126.359373,264.750003 125.901045,265.257811 125.304688,265.617188 C124.70833,265.976564 124.019535,266.15625 123.238281,266.15625 C122.045567,266.15625 121.091149,265.759119 120.375,264.964844 C119.658851,264.170569 119.300781,263.111986 119.300781,261.789062 L119.300781,261.695312 Z M121.199219,261.859375 C121.199219,262.729171 121.378904,263.410154 121.738281,263.902344 C122.097658,264.394534 122.597653,264.640625 123.238281,264.640625 C123.878909,264.640625 124.377602,264.390627 124.734375,263.890625 C125.091148,263.390623 125.269531,262.658859 125.269531,261.695312 C125.269531,260.841142 125.085939,260.164065 124.71875,259.664062 C124.351561,259.16406 123.852868,258.914062 123.222656,258.914062 C122.602861,258.914062 122.110679,259.160154 121.746094,259.652344 C121.381509,260.144534 121.199219,260.880203 121.199219,261.859375 Z M128.800781,264.484375 C129.326826,263.89583 129.679687,263.337242 129.859375,262.808594 C130.039063,262.279945 130.147135,261.604171 130.183594,260.78125 L130.292969,257.546875 L136.160156,257.546875 L136.160156,264.484375 L137.332031,264.484375 L137.332031,268.515625 L135.441406,268.515625 L135.441406,266 L130.019531,266 L130.019531,268.515625 L128.097656,268.515625 L128.105469,264.484375 L128.800781,264.484375 Z M131.027344,264.484375 L134.269531,264.484375 L134.269531,259.179688 L132.136719,259.179688 L132.082031,260.796875 C132.009114,262.348966 131.657555,263.57812 131.027344,264.484375 Z M145.855469,266 L143.957031,266 L143.957031,259.078125 L140.660156,259.078125 L140.660156,266 L138.761719,266 L138.761719,257.546875 L145.855469,257.546875 L145.855469,266 Z M153.152344,257.546875 L155.042969,257.546875 L155.042969,266 L153.152344,266 L153.152344,260.359375 L149.839844,266 L147.949219,266 L147.949219,257.546875 L149.839844,257.546875 L149.839844,263.1875 L153.152344,257.546875 Z M160.535156,264.640625 C161.009117,264.640625 161.402342,264.502606 161.714844,264.226562 C162.027345,263.950519 162.19401,263.609377 162.214844,263.203125 L164.003906,263.203125 C163.983073,263.729169 163.819012,264.22005 163.511719,264.675781 C163.204426,265.131513 162.787763,265.492186 162.261719,265.757812 C161.735674,266.023439 161.167972,266.15625 160.558594,266.15625 C159.376296,266.15625 158.438806,265.773441 157.746094,265.007812 C157.053382,264.242184 156.707031,263.184903 156.707031,261.835938 L156.707031,261.640625 C156.707031,260.35416 157.050778,259.324223 157.738281,258.550781 C158.425785,257.77734 159.363275,257.390625 160.550781,257.390625 C161.555995,257.390625 162.374997,257.683591 163.007812,258.269531 C163.640628,258.855472 163.972656,259.624995 164.003906,260.578125 L162.214844,260.578125 C162.19401,260.093748 162.028647,259.695314 161.71875,259.382812 C161.408853,259.070311 161.014325,258.914062 160.535156,258.914062 C159.92057,258.914062 159.446616,259.136717 159.113281,259.582031 C158.779946,260.027346 158.610677,260.70312 158.605469,261.609375 L158.605469,261.914062 C158.605469,262.830734 158.770832,263.514321 159.101562,263.964844 C159.432293,264.415367 159.910153,264.640625 160.535156,264.640625 Z M168.441406,262.65625 L167.480469,262.65625 L167.480469,266 L165.582031,266 L165.582031,257.546875 L167.480469,257.546875 L167.480469,260.921875 L168.316406,260.921875 L170.652344,257.546875 L172.996094,257.546875 L169.941406,261.59375 L173.253906,266 L170.785156,266 L168.441406,262.65625 Z M179.347656,266 C179.264322,265.838541 179.191407,265.575523 179.128906,265.210938 C178.524737,265.841149 177.785161,266.15625 176.910156,266.15625 C176.061194,266.15625 175.368492,265.914065 174.832031,265.429688 C174.29557,264.94531 174.027344,264.346358 174.027344,263.632812 C174.027344,262.731766 174.361976,262.040367 175.03125,261.558594 C175.700524,261.076821 176.657546,260.835938 177.902344,260.835938 L179.066406,260.835938 L179.066406,260.28125 C179.066406,259.843748 178.944012,259.493491 178.699219,259.230469 C178.454426,258.967447 178.082034,258.835938 177.582031,258.835938 C177.149737,258.835938 176.795574,258.944009 176.519531,259.160156 C176.243488,259.376303 176.105469,259.65104 176.105469,259.984375 L174.207031,259.984375 C174.207031,259.520831 174.360676,259.087242 174.667969,258.683594 C174.975262,258.279946 175.393227,257.963543 175.921875,257.734375 C176.450523,257.505207 177.040361,257.390625 177.691406,257.390625 C178.680995,257.390625 179.470049,257.63932 180.058594,258.136719 C180.647138,258.634117 180.949219,259.333329 180.964844,260.234375 L180.964844,264.046875 C180.964844,264.807295 181.071614,265.41406 181.285156,265.867188 L181.285156,266 L179.347656,266 Z M177.261719,264.632812 C177.636721,264.632812 177.989582,264.541668 178.320312,264.359375 C178.651043,264.177082 178.899739,263.932293 179.066406,263.625 L179.066406,262.03125 L178.042969,262.03125 C177.33984,262.03125 176.8112,262.153645 176.457031,262.398438 C176.102863,262.64323 175.925781,262.989581 175.925781,263.4375 C175.925781,263.802085 176.046874,264.092447 176.289062,264.308594 C176.531251,264.524741 176.855467,264.632812 177.261719,264.632812 Z" id="годоваяподписка" fill="#FFFFFF" fill-rule="nonzero"></path>
            <g id="Group" transform="translate(40.000000, 32.000000)" fill="#FFFFFF" fill-rule="nonzero">
                <path d="M24.0820312,33.6035156 C24.4921896,31.2792853 23.3496229,29.5019593 20.6542969,28.2714844 L15,26.015625 C8.43746719,23.0859229 5.32226396,19.0527601 5.65429688,13.9160156 C5.79101631,11.5331912 6.5722585,9.4238373 7.99804688,7.58789062 C9.42383525,5.75194395 11.4257684,4.31152866 14.0039062,3.26660156 C16.5820441,2.22167446 19.3652194,1.7187498 22.3535156,1.7578125 C26.47463,1.83593789 29.8046748,3.06151157 32.34375,5.43457031 C34.8828252,7.80762905 36.1328127,10.9863082 36.09375,14.9707031 L27.5390625,14.9707031 C27.6367192,13.0370997 27.2119188,11.5332085 26.2646484,10.4589844 C25.3173781,9.38476025 23.8476662,8.8281252 21.8554688,8.7890625 C19.902334,8.7499998 18.2031322,9.1943313 16.7578125,10.1220703 C15.3124928,11.0498093 14.4531264,12.3242106 14.1796875,13.9453125 C13.8085919,16.0742294 15.2343589,17.7636656 18.4570312,19.0136719 L22.3242188,20.4785156 L24.5507812,21.5039062 C30.3125288,24.355483 33.0078144,28.3593492 32.6367188,33.515625 C32.4609366,36.0351688 31.6552806,38.2079987 30.2197266,40.0341797 C28.7841725,41.8603607 26.831067,43.2617139 24.3603516,44.2382812 C21.8896361,45.2148486 19.1699367,45.6738284 16.2011719,45.6152344 C13.173813,45.5566403 10.4785274,44.9218811 8.11523438,43.7109375 C5.75194131,42.4999939 3.95508428,40.7910267 2.72460938,38.5839844 C1.57225986,36.5331929 1.03515586,34.1894663 1.11328125,31.5527344 L9.69726562,31.5820312 C9.42382676,36.2109606 11.6991946,38.5644527 16.5234375,38.6425781 C18.6132917,38.6425781 20.3320245,38.1835983 21.6796875,37.265625 C23.0273505,36.3476517 23.8281237,35.1269607 24.0820312,33.6035156 Z M61.7578125,36.2109375 L46.875,36.2109375 L42.4804688,45 L33.0175781,45 L55.8105469,2.34375 L63.75,2.34375 L71.8652344,45 L63.1054688,45 L61.7578125,36.2109375 Z M50.390625,29.0917969 L60.6738281,29.0917969 L58.2714844,13.2128906 L50.390625,29.0917969 Z M85.9570312,37.9394531 L104.0625,37.9394531 L102.832031,45 L76.1425781,45 L83.5546875,2.34375 L92.1386719,2.34375 L85.9570312,37.9394531 Z M136.113281,26.5136719 L119.765625,26.5136719 L117.773438,37.9394531 L136.992188,37.9394531 L135.761719,45 L107.958984,45 L115.371094,2.34375 L143.115234,2.34375 L141.855469,9.46289062 L122.724609,9.46289062 L120.9375,19.6289062 L137.34375,19.6289062 L136.113281,26.5136719 Z" id="SALE"></path>
                <path d="M2.4453125,70 L2.4453125,55.78125 L7.31835938,55.78125 C8.92644033,55.78125 10.1503864,56.1035124 10.9902344,56.7480469 C11.8300823,57.3925813 12.25,58.3528582 12.25,59.6289062 C12.25,60.2799512 12.0742205,60.8658828 11.7226562,61.3867188 C11.371092,61.9075547 10.8567742,62.3111965 10.1796875,62.5976562 C10.9479205,62.8059906 11.5419901,63.1982393 11.9619141,63.7744141 C12.381838,64.3505888 12.5917969,65.0423137 12.5917969,65.8496094 C12.5917969,67.1842515 12.1637413,68.2096318 11.3076172,68.9257812 C10.4514931,69.6419307 9.22591943,70 7.63085938,70 L2.4453125,70 Z M4.91601562,63.5839844 L4.91601562,68.0273438 L7.66015625,68.0273438 C8.43489971,68.0273438 9.0403624,67.8352884 9.4765625,67.4511719 C9.9127626,67.0670554 10.1308594,66.5332065 10.1308594,65.8496094 C10.1308594,64.3717374 9.37565859,63.6165366 7.86523438,63.5839844 L4.91601562,63.5839844 Z M4.91601562,61.7675781 L7.33789062,61.7675781 C8.10612363,61.7675781 8.70670356,61.5934262 9.13964844,61.2451172 C9.57259331,60.8968082 9.7890625,60.403649 9.7890625,59.765625 C9.7890625,59.0624965 9.58886919,58.5546891 9.18847656,58.2421875 C8.78808394,57.9296859 8.16471777,57.7734375 7.31835938,57.7734375 L4.91601562,57.7734375 L4.91601562,61.7675781 Z M17.5332031,68.0273438 L23.9882812,68.0273438 L23.9882812,70 L15.0625,70 L15.0625,55.78125 L17.5332031,55.78125 L17.5332031,68.0273438 Z M33.8417969,66.6894531 L28.3339844,66.6894531 L27.1816406,70 L24.6132812,70 L29.984375,55.78125 L32.2011719,55.78125 L37.5820312,70 L35.0039062,70 L33.8417969,66.6894531 Z M29.0273438,64.6972656 L33.1484375,64.6972656 L31.0878906,58.7988281 L29.0273438,64.6972656 Z M50.0429688,65.3710938 C49.8997389,66.8880284 49.3398486,68.0712848 48.3632812,68.9208984 C47.3867139,69.7705121 46.0878987,70.1953125 44.4667969,70.1953125 C43.3339787,70.1953125 42.3362673,69.9267605 41.4736328,69.3896484 C40.6109983,68.8525364 39.9453148,68.0891977 39.4765625,67.0996094 C39.0078102,66.1100211 38.763672,64.960944 38.7441406,63.6523438 L38.7441406,62.3242188 C38.7441406,60.9830662 38.9817685,59.8014374 39.4570312,58.7792969 C39.932294,57.7571563 40.6142534,56.9694038 41.5029297,56.4160156 C42.391606,55.8626274 43.418614,55.5859375 44.5839844,55.5859375 C46.1530026,55.5859375 47.4160108,56.0123655 48.3730469,56.8652344 C49.3300829,57.7181032 49.886718,58.9225183 50.0429688,60.4785156 L47.5820312,60.4785156 C47.4648432,59.4563751 47.1669946,58.7190778 46.6884766,58.2666016 C46.2099585,57.8141253 45.5084682,57.5878906 44.5839844,57.5878906 C43.5097603,57.5878906 42.6845732,57.9801393 42.1083984,58.7646484 C41.5322237,59.5491576 41.2376303,60.6998622 41.2246094,62.2167969 L41.2246094,63.4765625 C41.2246094,65.0130285 41.4996717,66.1848918 42.0498047,66.9921875 C42.5999376,67.7994832 43.4055937,68.203125 44.4667969,68.203125 C45.4368538,68.203125 46.1660132,67.9850282 46.6542969,67.5488281 C47.1425806,67.112628 47.4518223,66.3867238 47.5820312,65.3710938 L50.0429688,65.3710938 Z M56.3320312,63.8574219 L54.7207031,65.5664062 L54.7207031,70 L52.25,70 L52.25,55.78125 L54.7207031,55.78125 L54.7207031,62.4511719 L56.0878906,60.7617188 L60.2480469,55.78125 L63.2363281,55.78125 L57.953125,62.0800781 L63.5390625,70 L60.609375,70 L56.3320312,63.8574219 Z M78.03125,63.9746094 L72.3085938,63.9746094 L72.3085938,70 L69.8378906,70 L69.8378906,55.78125 L78.8710938,55.78125 L78.8710938,57.7734375 L72.3085938,57.7734375 L72.3085938,62.0019531 L78.03125,62.0019531 L78.03125,63.9746094 Z M86.0488281,64.5214844 L83.2949219,64.5214844 L83.2949219,70 L80.8242188,70 L80.8242188,55.78125 L85.8242188,55.78125 C87.464852,55.78125 88.7311153,56.1490849 89.6230469,56.8847656 C90.5149784,57.6204464 90.9609375,58.6848889 90.9609375,60.078125 C90.9609375,61.0286506 90.7314476,61.8245411 90.2724609,62.4658203 C89.8134743,63.1070996 89.1738322,63.6002587 88.3535156,63.9453125 L91.546875,69.8730469 L91.546875,70 L88.9003906,70 L86.0488281,64.5214844 Z M83.2949219,62.5390625 L85.8339844,62.5390625 C86.6673219,62.5390625 87.318357,62.3291037 87.7871094,61.9091797 C88.2558617,61.4892557 88.4902344,60.9147172 88.4902344,60.1855469 C88.4902344,59.4238243 88.2737652,58.8346375 87.8408203,58.4179688 C87.4078754,58.0013 86.761723,57.7864584 85.9023438,57.7734375 L83.2949219,57.7734375 L83.2949219,62.5390625 Z M95.9121094,70 L93.4511719,70 L93.4511719,55.78125 L95.9121094,55.78125 L95.9121094,70 Z M98.9492188,70 L98.9492188,55.78125 L103.148438,55.78125 C104.404954,55.78125 105.519852,56.0611951 106.493164,56.6210938 C107.466476,57.1809924 108.220049,57.9752553 108.753906,59.0039062 C109.287763,60.0325572 109.554688,61.2109309 109.554688,62.5390625 L109.554688,63.2519531 C109.554688,64.5996161 109.286135,65.7845001 108.749023,66.8066406 C108.211911,67.8287812 107.446945,68.6165337 106.454102,69.1699219 C105.461258,69.7233101 104.323574,70 103.041016,70 L98.9492188,70 Z M101.419922,57.7734375 L101.419922,68.0273438 L103.03125,68.0273438 C104.326829,68.0273438 105.321286,67.6220744 106.014648,66.8115234 C106.708011,66.0009725 107.061198,64.8372472 107.074219,63.3203125 L107.074219,62.5292969 C107.074219,60.9863204 106.738936,59.8079468 106.068359,58.9941406 C105.397783,58.1803345 104.424486,57.7734375 103.148438,57.7734375 L101.419922,57.7734375 Z M119.974609,66.6894531 L114.466797,66.6894531 L113.314453,70 L110.746094,70 L116.117188,55.78125 L118.333984,55.78125 L123.714844,70 L121.136719,70 L119.974609,66.6894531 Z M115.160156,64.6972656 L119.28125,64.6972656 L117.220703,58.7988281 L115.160156,64.6972656 Z M129.964844,62.5195312 L133.236328,55.78125 L135.970703,55.78125 L131.205078,64.765625 L131.205078,70 L128.724609,70 L128.724609,64.765625 L123.949219,55.78125 L126.693359,55.78125 L129.964844,62.5195312 Z" id="BLACKFRIDAY"></path>
            </g>
            <path d="M210,131 L16,132" id="Line" stroke="#FFFFFF" stroke-width="2" stroke-linecap="square" stroke-dasharray="9"></path>
        </g>
    </g>
</svg>