<svg xmlns="http://www.w3.org/2000/svg" width="20" height="20" viewBox="0 0 20 20">
    <g fill="none" fill-rule="evenodd">
        <path d="M0 0h20v20H0z"/>
        <circle cx="10" cy="10" r="10" fill="#FA9F37"/>
        <path fill="#FFF" fill-rule="nonzero" d="M8.846 5h2.308l-.403 6.667H9.264L8.846 5zm1.17 10.417c-.365 0-.667-.12-.907-.362a1.217 1.217 0 0 1-.359-.893c0-.353.12-.648.36-.884.239-.236.541-.354.906-.354a1.204 1.204 0 0 1 1.234 1.238c0 .354-.117.652-.352.893a1.18 1.18 0 0 1-.882.362z"/>
    </g>
</svg>
