<svg xmlns="http://www.w3.org/2000/svg" xmlns:xlink="http://www.w3.org/1999/xlink" width="720" height="832"><defs><rect id="a" width="352" height="144" x="368" y="124" rx="10"/><rect id="b" width="352" height="144" y="124" rx="10"/></defs><g fill="none" fill-rule="evenodd"><path d="M0 0h720v832H0z"/><path fill="#F2F2F2" d="M0 0h352v32H0zm0 300h144v12H0zm0 220h144v12H0zm0 172h144v12H0zm368-392h160v12H368zM0 332h272v12H0zm0 220h209v12H0zm0 172h208v12H0zm368-392h216v12H368zM0 648h144v12H0zM0 56h208v12H0zm0 24h272v12H0zm0 276h272v12H0zm0 220h209v12H0zm0 172h272v12H0zm368-392h288v12H368zM0 380h272v12H0zm0 220h209v12H0zm0 172h272v12H0zm0 24h272v12H0zm368-416h288v12H368zM0 404h272v12H0zm0 220h209v12H0zm0 196h144v12H0zm368-416h288v12H368zM0 428h272v12H0zm368 0h160v12H368zm0 44h160v12H368zm0 172h160v12H368zm0 128h160v12H368zm0-268h224v12H368zm0 172h224v12H368zm0-148h288v12H368zm0 172h288v12H368zm0 24h288v12H368zm0 24h288v12H368zm0-196h288v12H368zm0 24h288v12H368zm0 24h160v12H368zM0 452h272v12H0zm0 24h208v12H0z"/><use fill="#F2F2F2" xlink:href="#a"/><use fill="#F2F2F2" xlink:href="#b"/></g></svg>