<svg xmlns="http://www.w3.org/2000/svg" width="720" height="296"><g fill="none" fill-rule="evenodd"><path d="M0 0h720v296H0z"/><path fill="#F2F2F2" d="M0 0h336v32H0zm0 106h80v12H0zm0-32h80v12H0zm0 64h80v12H0zm0 32h80v12H0zm0 32h80v12H0zm0 32h80v12H0zm560-128h160v12H560zm-192 0h160v12H368zm-192 0h160v12H176zm384 32h160v12H560zm-192 0h160v12H368zm-192 0h160v12H176zm384 32h160v12H560zm-192 0h160v12H368zm-192 0h160v12H176zm384 32h160v12H560zm-192 0h160v12H368zm-192 0h160v12H176zm384 32h160v12H560zm-192 0h160v12H368zm-192 0h160v12H176zM0 282h80v12H0zm560 0h160v12H560zm-192 0h160v12H368zm-192 0h160v12H176zM560 74h80v12h-80zm-192 0h80v12h-80zm-192 0h80v12h-80z"/></g></svg>