<svg xmlns="http://www.w3.org/2000/svg" width="640" height="288"><g fill="none" fill-rule="evenodd"><path d="M0 0h640v288H0z"/><path fill="#F2F2F2" d="M0 0h304v24H0zm0 98h72v12H0zm0-32h72v12H0zm0 64h72v12H0zm0 32h72v12H0zm0 32h72v12H0zm0 32h72v12H0zm0 48h72v12H0zM160 98h144v12H160zm0 32h144v12H160zm0 32h144v12H160zm0 32h144v12H160zm0 32h144v12H160zm0 48h144v12H160zm0-208h72v12h-72zm168 32h144v12H328zm0 32h144v12H328zm0 32h144v12H328zm0 32h144v12H328zm0 32h144v12H328zm0 48h144v12H328zm0-208h72v12h-72zm168 32h144v12H496zm0 32h144v12H496zm0 32h144v12H496zm0 32h144v12H496zm0 32h144v12H496zm0 48h144v12H496zm0-208h72v12h-72z"/></g></svg>