<svg xmlns="http://www.w3.org/2000/svg" xmlns:xlink="http://www.w3.org/1999/xlink" width="640" height="816"><defs><rect id="a" width="312" height="144" x="328" y="108" rx="10"/></defs><g fill="none" fill-rule="evenodd"><path d="M0 0h640v816H0z"/><g fill="#F2F2F2"><path d="M0 0h312v24H0zm0 284h144v12H0zm0 220h144v12H0zm0 172h144v12H0zm328-392h144v12H328zM0 316h272v12H0zm0 220h209v12H0zm0 172h208v12H0zm328-392h208v12H328zM0 632h144v12H0zM0 40h208v12H0zm0 24h272v12H0zm0 276h272v12H0zm0 220h209v12H0zm0 172h272v12H0zm328-392h272v12H328zM0 364h272v12H0zm0 220h209v12H0zm0 172h272v12H0zm0 24h272v12H0zm328-416h272v12H328zM0 388h272v12H0zm0 220h209v12H0zm0 196h144v12H0zm328-416h272v12H328zM0 412h272v12H0zm328 0h144v12H328zm0 44h144v12H328zm0 172h144v12H328zm0 128h144v12H328zm0-268h208v12H328zm0 172h208v12H328zm0-148h272v12H328zm0 172h272v12H328zm0 24h272v12H328zm0 24h272v12H328zm0-196h272v12H328zm0 24h272v12H328zm0 24h144v12H328zM0 436h272v12H0zm0 24h208v12H0z"/><rect width="312" height="144" y="108" rx="10"/><use xlink:href="#a"/></g></g></svg>