<svg xmlns="http://www.w3.org/2000/svg" width="720" height="296" viewBox="0 0 720 296">
    <g fill="none" fill-rule="evenodd">
        <path d="M0 0h720v296H0z"/>
        <path fill="#F2F2F2" d="M0 0h336v32H0zM0 106h80v12H0zM0 74h80v12H0zM0 138h80v12H0zM0 170h80v12H0zM0 202h80v12H0zM0 234h80v12H0zM560 106h160v12H560zM368 106h160v12H368zM176 106h160v12H176zM560 138h160v12H560zM368 138h160v12H368zM176 138h160v12H176zM560 170h160v12H560zM368 170h160v12H368zM176 170h160v12H176zM560 202h160v12H560zM368 202h160v12H368zM176 202h160v12H176zM560 234h160v12H560zM368 234h160v12H368zM176 234h160v12H176zM0 282h80v12H0zM560 282h160v12H560zM368 282h160v12H368zM176 282h160v12H176zM560 74h80v12h-80zM368 74h80v12h-80zM176 74h80v12h-80z"/>
    </g>
</svg>
