<svg width="640" height="288" xmlns="http://www.w3.org/2000/svg"><g fill="none" fill-rule="evenodd"><path d="M0 0h640v288H0z"/><path d="M0 0h288v24H0V0zm0 98h72v12H0V98zm0-32h72v12H0V66zm0 64h72v12H0v-12zm0 32h72v12H0v-12zm0 32h72v12H0v-12zm0 32h72v12H0v-12zm0 48h72v12H0v-12zM128 98h144v12H128V98zm0 32h144v12H128v-12zm0 32h144v12H128v-12zm0 32h144v12H128v-12zm0 32h144v12H128v-12zm0 48h144v12H128v-12zm0-208h72v12h-72V66zm184 32h144v12H312V98zm0 32h144v12H312v-12zm0 32h144v12H312v-12zm0 32h144v12H312v-12zm0 32h144v12H312v-12zm0 48h144v12H312v-12zm0-208h72v12h-72V66zm184 32h144v12H496V98zm0 32h144v12H496v-12zm0 32h144v12H496v-12zm0 32h144v12H496v-12zm0 32h144v12H496v-12zm0 48h144v12H496v-12zm0-208h72v12h-72V66z" fill-opacity=".1" fill="#000"/></g></svg>