<svg xmlns="http://www.w3.org/2000/svg" xmlns:xlink="http://www.w3.org/1999/xlink" width="720" height="832" viewBox="0 0 720 832">
    <defs>
        <rect id="a" width="352" height="144" x="368" y="124" rx="10"/>
        <rect id="b" width="352" height="144" y="124" rx="10"/>
    </defs>
    <g fill="none" fill-rule="evenodd">
        <path d="M0 0h720v832H0z"/>
        <path fill="#F2F2F2" d="M0 0h352v32H0zM0 300h144v12H0zM0 520h144v12H0zM0 692h144v12H0zM368 300h160v12H368zM0 332h272v12H0zM0 552h209v12H0zM0 724h208v12H0zM368 332h216v12H368zM0 648h144v12H0zM0 56h208v12H0zM0 80h272v12H0zM0 356h272v12H0zM0 576h209v12H0zM0 748h272v12H0zM368 356h288v12H368zM0 380h272v12H0zM0 600h209v12H0zM0 772h272v12H0zM0 796h272v12H0zM368 380h288v12H368zM0 404h272v12H0zM0 624h209v12H0zM0 820h144v12H0zM368 404h288v12H368zM0 428h272v12H0zM368 428h160v12H368zM368 472h160v12H368zM368 644h160v12H368zM368 772h160v12H368zM368 504h224v12H368zM368 676h224v12H368zM368 528h288v12H368zM368 700h288v12H368zM368 724h288v12H368zM368 748h288v12H368zM368 552h288v12H368zM368 576h288v12H368zM368 600h160v12H368zM0 452h272v12H0zM0 476h208v12H0z"/>
        <use fill="#F2F2F2" xlink:href="#a"/>
        <use fill="#F2F2F2" xlink:href="#b"/>
    </g>
</svg>
