<svg width="720" height="288" xmlns="http://www.w3.org/2000/svg"><g fill="none" fill-rule="evenodd"><path d="M0 0h720v288H0z"/><path d="M0 0h288v24H0V0zm0 98h72v12H0V98zm0-32h72v12H0V66zm0 64h72v12H0v-12zm0 32h72v12H0v-12zm0 32h72v12H0v-12zm0 32h72v12H0v-12zM560 98h160v12H560V98zm-216 0h160v12H344V98zm-216 0h160v12H128V98zm432 32h160v12H560v-12zm-216 0h160v12H344v-12zm-216 0h160v12H128v-12zm432 32h160v12H560v-12zm-216 0h160v12H344v-12zm-216 0h160v12H128v-12zm432 32h160v12H560v-12zm-216 0h160v12H344v-12zm-216 0h160v12H128v-12zm432 32h160v12H560v-12zm-216 0h160v12H344v-12zm-216 0h160v12H128v-12zM0 274h72v12H0v-12zm560 0h160v12H560v-12zm-216 0h160v12H344v-12zm-216 0h160v12H128v-12zM560 66h72v12h-72V66zm-216 0h72v12h-72V66zm-216 0h72v12h-72V66z" fill-opacity=".1" fill="#000"/></g></svg>