<svg width="224" height="316" xmlns="http://www.w3.org/2000/svg"><g fill="none" fill-rule="evenodd"><path d="M0 0h224v316H0z"/><path d="M8 13A5 5 0 1 1 8 3a5 5 0 0 1 0 10zm0 32a5 5 0 1 1 0-10 5 5 0 0 1 0 10zm0 32a5 5 0 1 1 0-10 5 5 0 0 1 0 10zm0 32a5 5 0 1 1 0-10 5 5 0 0 1 0 10zm0 32a5 5 0 1 1 0-10 5 5 0 0 1 0 10zm0 32a5 5 0 1 1 0-10 5 5 0 0 1 0 10zM24 2h120v12H24V2zm0 32h104v12H24V34zm0 32h120v12H24V66zm0 32h104v12H24V98zm0 32h104v12H24v-12zm0 32h104v12H24v-12z" fill-opacity=".1" fill="#000"/></g></svg>