<svg xmlns="http://www.w3.org/2000/svg" xmlns:xlink="http://www.w3.org/1999/xlink" width="104" height="104"><defs><rect id="b" width="56" height="80" x="24" y="11" rx="2"/><filter id="a" width="171.4%" height="150%" x="-35.7%" y="-20%" filterUnits="objectBoundingBox"><feOffset dy="4" in="SourceAlpha" result="shadowOffsetOuter1"/><feGaussianBlur in="shadowOffsetOuter1" result="shadowBlurOuter1" stdDeviation="6"/><feColorMatrix in="shadowBlurOuter1" values="0 0 0 0 0 0 0 0 0 0 0 0 0 0 0 0 0 0 0.12 0"/></filter></defs><g fill="none" fill-rule="evenodd" transform="translate(0 1)"><path d="M0-1h104v104H0z" opacity=".1"/><use fill="#000" filter="url(#a)" xlink:href="#b"/><use fill="#FFF" xlink:href="#b"/><circle cx="71.5" cy="82.5" r="2.5" stroke="#999"/><rect width="44" height="4" x="30" y="33" fill="#1A1A1A" rx="2"/><path fill="#000" d="M30 41h44v1H30z"/><path fill="#999" d="M30 17h20v1H30zm24 0h20v1H54zm-24 4h20v1H30zm24 0h20v1H54zm-24 4h20v1H30zm0 55h20v1H30zm0 4h20v1H30zm24-4h11v1H54zm0 4h11v1H54zm0-59h20v1H54z"/><path fill="#000" d="M30 45h44v1H30zm0 4h44v1H30zm0 4h44v1H30zm0 4h44v1H30zm24 4h20v1H54z"/></g></svg>