<svg xmlns="http://www.w3.org/2000/svg" width="52" height="52"><g fill="none" fill-rule="evenodd"><path d="M0 0h52v52H0z"/><path stroke="#000" stroke-width="1.5" d="M40.75 39c-1.142 2.022-3.406 3.92-6.106 5.344-2.842 1.5-6.038 2.406-8.644 2.406s-5.802-.907-8.644-2.406c-2.7-1.424-4.964-3.322-6.106-5.344 1.142-2.022 3.406-3.92 6.106-5.344 2.842-1.5 6.038-2.406 8.644-2.406s5.802.907 8.644 2.406c2.7 1.424 4.964 3.322 6.106 5.344z"/><path stroke="#000" stroke-width="1.5" d="M1 51.25L26 2.5l25 48.75z"/><path fill="#000" d="M26 47a8 8 0 110-16 8 8 0 010 16zm6.437-7.941a6.963 6.963 0 00-1.3-3.546c-.958-1.306-2.507-2.379-4.846-2.631a.377.377 0 00-.414.354l-.051.774a.404.404 0 00.36.423c1.87.217 3.007 1.056 3.699 1.998a5.42 5.42 0 01.994 2.628.42.42 0 00.408.388h.776c.215 0 .39-.174.374-.388zM16.75 29.552c3.28-2.2 11.021-5.245 18.5 0-5.117-1.553-9.447-2.718-18.5 0z"/></g></svg>