<svg xmlns="http://www.w3.org/2000/svg" width="168" height="21"><g fill="none" fill-rule="evenodd"><path fill="#000" d="M77.321 17.2c-3.601 0-6.521-3-6.521-6.7s2.92-6.7 6.521-6.7 5.179 3 5.179 6.7-1.578 6.7-5.179 6.7zm-.071-2.7c2.071 0 3.75-1.79 3.75-4s-1.679-4-3.75-4c-2.071 0-3.75 1.79-3.75 4s1.679 4 3.75 4zm10.429 2.7c-3.601 0-5.179-3-5.179-6.7s1.578-6.7 5.179-6.7 6.521 3 6.521 6.7-2.92 6.7-6.521 6.7zm-.018-2.7c2.12 0 3.839-1.79 3.839-4s-1.719-4-3.84-4c-2.12 0-3.66 1.79-3.66 4s1.54 4 3.66 4z"/><path fill="#000" d="M81 0h3v21h-3zm78.679 17.2c-3.601 0-5.179-3-5.179-6.7s1.578-6.7 5.179-6.7 6.521 3 6.521 6.7-2.92 6.7-6.521 6.7zm-.018-2.7c2.12 0 3.839-1.79 3.839-4s-1.719-4-3.84-4c-2.12 0-3.66 1.79-3.66 4s1.54 4 3.66 4z"/><path fill="#000" d="M153 4h3v17h-3zm-50.679 13.2c-3.601 0-6.521-3-6.521-6.7s2.92-6.7 6.521-6.7c3.265 0 5.179 3 5.179 6.7s-1.914 6.7-5.179 6.7zm.179-2.7c2.071 0 3.75-1.79 3.75-4s-1.679-4-3.75-4c-2.071 0-3.75 1.79-3.75 4s1.679 4 3.75 4z"/><path fill="#000" d="M106.25 4H109v13h-2.75zM130 4h3v13h-3zm-18 0h3v13h-3z"/><path fill="#000" d="M126 4h11v2.75h-11zM41 4h3v13h-3zm9 0h3v13h-3zM32.5 17.25a6.75 6.75 0 1 1 0-13.5 6.75 6.75 0 0 1 0 13.5zm0-2.75c2.071 0 3.75-1.79 3.75-4s-1.679-4-3.75-4c-2.071 0-3.75 1.79-3.75 4s1.679 4 3.75 4zm112 2.75a6.75 6.75 0 1 1 0-13.5 6.75 6.75 0 0 1 0 13.5zm0-2.75c2.071 0 3.75-1.79 3.75-4s-1.679-4-3.75-4c-2.071 0-3.75 1.79-3.75 4s1.679 4 3.75 4z"/><path fill="#000" d="M41 4h12v2.75H41zM10.6 7.9c-.688-.857-1.71-1.4-2.85-1.4C5.679 6.5 4 8.29 4 10.5s1.679 4 3.75 4c1.14 0 2.162-.543 2.85-1.4l1.916 1.916a6.75 6.75 0 1 1 0-9.033L10.6 7.9zM121 4h3.75l-7 7H114z"/><path fill="#000" d="M114 10h3.837L125 17h-3.837zM18 4h3v13h-3z"/><path fill="#000" d="M14 4h11v2.75H14zm100 5.1h3v2.8h-3z"/><path stroke="#000" stroke-linecap="square" stroke-width="2.8" d="M60 13l5-5m-5 0l5 5"/></g></svg>