<svg xmlns="http://www.w3.org/2000/svg" width="106" height="38"><g fill="none" fill-rule="evenodd" opacity=".9"><path d="M0 0h106v38H0z"/><path fill="#000" d="M103.749 20.27l1.851 2.97c-1.005 1.404-2.803 2.16-4.867 2.16-3.967 0-6.533-2.565-6.533-6.4 0-3.538 2.54-6.4 6.295-6.4 2.037 0 3.782.567 4.867 1.728l-1.825 3.187c-.846-.865-1.64-1.134-2.54-1.134-1.242 0-2.565.89-2.565 2.619 0 1.647 1.375 2.62 2.619 2.62 1.163 0 1.983-.568 2.698-1.35zM77 25V13h3.942v5.546L84.148 13h4.94l-3.837 5.707L89.666 25h-5.098l-3.626-5.6V25H77zm-11.078 0v-4.133h-3.844V25H58.1V13h3.978v4.133h3.844V13H69.9v12h-3.978zm-24.009 0H38V13h3.913v6.267L46.087 13H50v12h-3.913v-6.267L41.913 25zM19 0v6.29c-6.996.001-12.666 5.691-12.666 12.711 0 7.02 5.67 12.71 12.666 12.71V38C8.506 38 0 29.493 0 19S8.506 0 19 0zm0 12.5v13c-3.314 0-6-2.91-6-6.5s2.686-6.5 6-6.5zm6 0c3.314 0 6 2.91 6 6.5s-2.686 6.5-6 6.5v-13z"/></g></svg>