<svg xmlns="http://www.w3.org/2000/svg" xmlns:xlink="http://www.w3.org/1999/xlink" style="display:none"><defs><circle id="a" cx="16" cy="16" r="16"/><circle id="a" cx="16" cy="16" r="16"/></defs><symbol id="icon-document-dangerously"><g fill="none" fill-rule="evenodd"><path d="M0 0h24v24H0z"/><path d="M12.207.5L4.5 8.207V31.5h23V.5H12.207z" stroke="#F24C3D"/><path stroke="#F24C3D" stroke-linecap="square" d="M4.5 8.5h8v-8M8.5 12.5l15 15M8.5 27.5l15-15"/></g></symbol><symbol id="icon-document"><g fill="none" fill-rule="evenodd"><path d="M0 0h32v32H0z"/><path d="M12.207.5L4.5 8.207V31.5h23V.5H12.207z" stroke="#000"/><path stroke="#000" stroke-linecap="square" d="M4.5 8.5h8v-8M8.5 18.5h15M8.5 15.5h15M8.5 12.5h15M8.5 21.5h15M8.5 24.5h15M8.5 27.5h15"/></g></symbol><symbol id="icon-favourites"><g fill="none" fill-rule="evenodd"><path d="M0 0h32v32H0z"/><path fill="#999" d="M16 20.94l-7.641 5.577 2.943-8.99-7.666-5.544 9.46.02L16 3l2.904 9.003 9.46-.02-7.666 5.544 2.943 8.99z"/></g></symbol><symbol id="icon-options"><g fill="none" fill-rule="evenodd"><path d="M0 0h32v32H0z"/><g fill="#999"><path d="M16 4h2v24h-2zM19 8h9v4h-9zM8 8h7v4H8zM19 14h5v4h-5zM4 14h11v4H4zM10 20h5v4h-5zM19 20h7v4h-7z"/></g></g></symbol><symbol id="icon-profile"><g fill="none" fill-rule="evenodd"><path d="M0 0h32v32H0z"/><mask id="b" fill="#fff"><use xlink:href="#a"/></mask><use fill-opacity=".1" fill="#000" xlink:href="#a"/><circle fill="#999" mask="url(#b)" cx="16" cy="38" r="15"/><circle fill="#999" cx="16" cy="14" r="7"/></g></symbol><symbol id="icon-search"><g fill="none" fill-rule="evenodd"><path d="M0 0h24v24H0z"/><path d="M14.5 14.5l5 5" stroke="#000" stroke-width="2" stroke-linecap="square"/><circle stroke="#000" stroke-width="2" cx="10" cy="10" r="6"/></g></symbol><symbol id="lk-menu"><g fill="none" fill-rule="evenodd"><path d="M0 0h32v32H0z"/><mask id="b" fill="#fff"><use xlink:href="#a"/></mask><use fill-opacity=".1" fill="#000" xlink:href="#a"/><circle fill="#999" mask="url(#b)" cx="16" cy="38" r="15"/><circle fill="#999" cx="16" cy="14" r="7"/></g></symbol></svg>